<mxfile host="app.diagrams.net" modified="2024-06-01T12:09:15.847Z" agent="Mozilla/5.0 (Windows NT 10.0; Win64; x64) AppleWebKit/537.36 (KHTML, like Gecko) Chrome/125.0.0.0 Safari/537.36" etag="UkSGohk3tGWnKVXJDKry" version="24.4.13" type="google">
  <diagram name="Seite-1" id="jTGfNF7j89qaTJN93gwm">
    <mxGraphModel grid="1" page="1" gridSize="10" guides="1" tooltips="1" connect="1" arrows="1" fold="1" pageScale="1" pageWidth="827" pageHeight="1169" math="0" shadow="0">
      <root>
        <mxCell id="0" />
        <mxCell id="1" parent="0" />
        <mxCell id="hGcVFv6qGG0Ev_nQUmDL-1" value="Actor" style="shape=umlActor;verticalLabelPosition=bottom;verticalAlign=top;html=1;outlineConnect=0;" vertex="1" parent="1">
          <mxGeometry x="56.4" y="560" width="30" height="60" as="geometry" />
        </mxCell>
        <mxCell id="hGcVFv6qGG0Ev_nQUmDL-2" value="FAISS &lt;br&gt;Vector Database" style="rounded=1;whiteSpace=wrap;html=1;fillColor=#dae8fc;strokeColor=#6c8ebf;" vertex="1" parent="1">
          <mxGeometry x="240" y="460" width="120" height="60" as="geometry" />
        </mxCell>
        <mxCell id="hGcVFv6qGG0Ev_nQUmDL-3" value="Chat GTP&lt;br&gt;Large Language Model" style="rounded=1;whiteSpace=wrap;html=1;fillColor=#d5e8d4;strokeColor=#82b366;" vertex="1" parent="1">
          <mxGeometry x="400" y="460" width="120" height="60" as="geometry" />
        </mxCell>
        <mxCell id="hGcVFv6qGG0Ev_nQUmDL-4" value="Streamlit&lt;br&gt;Question Interface" style="rounded=1;whiteSpace=wrap;html=1;fillColor=#f8cecc;strokeColor=#b85450;" vertex="1" parent="1">
          <mxGeometry x="240" y="560" width="120" height="60" as="geometry" />
        </mxCell>
        <mxCell id="hGcVFv6qGG0Ev_nQUmDL-8" style="edgeStyle=orthogonalEdgeStyle;rounded=0;orthogonalLoop=1;jettySize=auto;html=1;exitX=1;exitY=0.5;exitDx=0;exitDy=0;entryX=0;entryY=0.5;entryDx=0;entryDy=0;" edge="1" parent="1" source="hGcVFv6qGG0Ev_nQUmDL-38" target="hGcVFv6qGG0Ev_nQUmDL-19">
          <mxGeometry relative="1" as="geometry">
            <mxPoint x="105" y="360" as="sourcePoint" />
            <mxPoint x="220" y="330" as="targetPoint" />
          </mxGeometry>
        </mxCell>
        <mxCell id="hGcVFv6qGG0Ev_nQUmDL-7" value="" style="endArrow=classic;html=1;rounded=0;entryX=0.75;entryY=0;entryDx=0;entryDy=0;exitX=1;exitY=0.5;exitDx=0;exitDy=0;" edge="1" parent="1" source="hGcVFv6qGG0Ev_nQUmDL-35" target="hGcVFv6qGG0Ev_nQUmDL-2">
          <mxGeometry width="50" height="50" relative="1" as="geometry">
            <mxPoint x="330" y="230" as="sourcePoint" />
            <mxPoint x="430" y="230" as="targetPoint" />
            <Array as="points">
              <mxPoint x="330" y="270" />
            </Array>
          </mxGeometry>
        </mxCell>
        <mxCell id="hGcVFv6qGG0Ev_nQUmDL-15" value="Prompt" style="text;strokeColor=none;align=center;fillColor=none;html=1;verticalAlign=middle;whiteSpace=wrap;rounded=0;" vertex="1" parent="1">
          <mxGeometry x="420" y="260" width="60" height="30" as="geometry" />
        </mxCell>
        <mxCell id="hGcVFv6qGG0Ev_nQUmDL-16" value="Source documents" style="rounded=0;whiteSpace=wrap;html=1;strokeColor=none;fillColor=none;" vertex="1" parent="1">
          <mxGeometry y="330" width="120" height="30" as="geometry" />
        </mxCell>
        <mxCell id="hGcVFv6qGG0Ev_nQUmDL-17" value="Embeddings" style="rounded=0;whiteSpace=wrap;html=1;strokeColor=none;fillColor=none;" vertex="1" parent="1">
          <mxGeometry x="4.600000000000001" y="200" width="100" height="30" as="geometry" />
        </mxCell>
        <mxCell id="hGcVFv6qGG0Ev_nQUmDL-19" value="LangChain &lt;br&gt;Document Loader" style="rounded=1;whiteSpace=wrap;html=1;fillColor=#dae8fc;strokeColor=#6c8ebf;" vertex="1" parent="1">
          <mxGeometry x="151.19" y="369" width="120" height="60" as="geometry" />
        </mxCell>
        <mxCell id="hGcVFv6qGG0Ev_nQUmDL-22" style="edgeStyle=orthogonalEdgeStyle;rounded=0;orthogonalLoop=1;jettySize=auto;html=1;exitX=1;exitY=0.5;exitDx=0;exitDy=0;entryX=0.5;entryY=0;entryDx=0;entryDy=0;" edge="1" parent="1" source="hGcVFv6qGG0Ev_nQUmDL-19" target="hGcVFv6qGG0Ev_nQUmDL-2">
          <mxGeometry relative="1" as="geometry">
            <mxPoint x="107" y="409" as="sourcePoint" />
            <mxPoint x="160" y="409" as="targetPoint" />
          </mxGeometry>
        </mxCell>
        <mxCell id="hGcVFv6qGG0Ev_nQUmDL-24" value="Chat Prompt Template" style="shape=note;whiteSpace=wrap;html=1;backgroundOutline=1;darkOpacity=0.05;" vertex="1" parent="1">
          <mxGeometry x="420" y="300" width="80" height="100" as="geometry" />
        </mxCell>
        <mxCell id="hGcVFv6qGG0Ev_nQUmDL-25" style="edgeStyle=orthogonalEdgeStyle;rounded=0;orthogonalLoop=1;jettySize=auto;html=1;entryX=0;entryY=0.5;entryDx=0;entryDy=0;exitX=1;exitY=0.5;exitDx=0;exitDy=0;" edge="1" parent="1" source="hGcVFv6qGG0Ev_nQUmDL-2" target="hGcVFv6qGG0Ev_nQUmDL-3">
          <mxGeometry relative="1" as="geometry">
            <mxPoint x="380" y="550" as="sourcePoint" />
            <mxPoint x="310" y="470" as="targetPoint" />
          </mxGeometry>
        </mxCell>
        <mxCell id="hGcVFv6qGG0Ev_nQUmDL-26" style="edgeStyle=orthogonalEdgeStyle;rounded=0;orthogonalLoop=1;jettySize=auto;html=1;exitX=0.5;exitY=1;exitDx=0;exitDy=0;entryX=0.5;entryY=0;entryDx=0;entryDy=0;exitPerimeter=0;" edge="1" parent="1" source="hGcVFv6qGG0Ev_nQUmDL-24" target="hGcVFv6qGG0Ev_nQUmDL-3">
          <mxGeometry relative="1" as="geometry">
            <mxPoint x="270" y="409" as="sourcePoint" />
            <mxPoint x="310" y="470" as="targetPoint" />
          </mxGeometry>
        </mxCell>
        <mxCell id="hGcVFv6qGG0Ev_nQUmDL-29" style="edgeStyle=orthogonalEdgeStyle;rounded=0;orthogonalLoop=1;jettySize=auto;html=1;entryX=0;entryY=0.5;entryDx=0;entryDy=0;" edge="1" parent="1" source="hGcVFv6qGG0Ev_nQUmDL-1" target="hGcVFv6qGG0Ev_nQUmDL-4">
          <mxGeometry relative="1" as="geometry">
            <mxPoint x="270" y="409" as="sourcePoint" />
            <mxPoint x="310" y="470" as="targetPoint" />
          </mxGeometry>
        </mxCell>
        <mxCell id="hGcVFv6qGG0Ev_nQUmDL-31" style="edgeStyle=orthogonalEdgeStyle;rounded=0;orthogonalLoop=1;jettySize=auto;html=1;entryX=0.25;entryY=1;entryDx=0;entryDy=0;exitX=1;exitY=0.25;exitDx=0;exitDy=0;" edge="1" parent="1" source="hGcVFv6qGG0Ev_nQUmDL-4" target="hGcVFv6qGG0Ev_nQUmDL-3">
          <mxGeometry relative="1" as="geometry">
            <mxPoint x="383" y="589.5" as="sourcePoint" />
            <mxPoint x="537" y="589.5" as="targetPoint" />
          </mxGeometry>
        </mxCell>
        <mxCell id="hGcVFv6qGG0Ev_nQUmDL-32" style="edgeStyle=orthogonalEdgeStyle;rounded=0;orthogonalLoop=1;jettySize=auto;html=1;entryX=1;entryY=0.75;entryDx=0;entryDy=0;exitX=0.75;exitY=1;exitDx=0;exitDy=0;" edge="1" parent="1" source="hGcVFv6qGG0Ev_nQUmDL-3" target="hGcVFv6qGG0Ev_nQUmDL-4">
          <mxGeometry relative="1" as="geometry">
            <mxPoint x="510" y="612" as="sourcePoint" />
            <mxPoint x="610" y="557" as="targetPoint" />
          </mxGeometry>
        </mxCell>
        <mxCell id="hGcVFv6qGG0Ev_nQUmDL-33" value="" style="shape=image;verticalLabelPosition=bottom;labelBackgroundColor=default;verticalAlign=top;aspect=fixed;imageAspect=0;image=https://upload.wikimedia.org/wikipedia/commons/thumb/0/04/ChatGPT_logo.svg/512px-ChatGPT_logo.svg.png;imageBorder=default;" vertex="1" parent="1">
          <mxGeometry x="500" y="438" width="40" height="40" as="geometry" />
        </mxCell>
        <mxCell id="hGcVFv6qGG0Ev_nQUmDL-34" value="" style="shape=image;verticalLabelPosition=bottom;labelBackgroundColor=default;verticalAlign=top;aspect=fixed;imageAspect=0;image=https://pbs.twimg.com/profile_images/1366779897423810562/kn7ucNPv_400x400.png;imageBorder=default;" vertex="1" parent="1">
          <mxGeometry x="350" y="530" width="40" height="40" as="geometry" />
        </mxCell>
        <mxCell id="hGcVFv6qGG0Ev_nQUmDL-35" value="Text Embeddings Model" style="rounded=1;whiteSpace=wrap;html=1;fillColor=#d5e8d4;strokeColor=#82b366;" vertex="1" parent="1">
          <mxGeometry x="7.105427357601002e-15" y="240" width="120" height="60" as="geometry" />
        </mxCell>
        <mxCell id="hGcVFv6qGG0Ev_nQUmDL-13" value="" style="shape=image;verticalLabelPosition=bottom;labelBackgroundColor=default;verticalAlign=top;aspect=fixed;imageAspect=0;image=https://upload.wikimedia.org/wikipedia/commons/thumb/0/04/ChatGPT_logo.svg/512px-ChatGPT_logo.svg.png;shadow=0;imageBorder=default;" vertex="1" parent="1">
          <mxGeometry x="100" y="221" width="39" height="39" as="geometry" />
        </mxCell>
        <mxCell id="hGcVFv6qGG0Ev_nQUmDL-36" value="" style="shape=image;verticalLabelPosition=bottom;labelBackgroundColor=default;verticalAlign=top;aspect=fixed;imageAspect=0;image=https://miro.medium.com/v2/resize:fit:853/1*1DBe4cCQYfpM0oNXl_kH2w.png;imageBorder=default;" vertex="1" parent="1">
          <mxGeometry x="210" y="360" width="81" height="22.98" as="geometry" />
        </mxCell>
        <mxCell id="hGcVFv6qGG0Ev_nQUmDL-37" value="" style="shape=image;verticalLabelPosition=bottom;labelBackgroundColor=default;verticalAlign=top;aspect=fixed;imageAspect=0;image=https://openbenchmarking.org/logos/pts_faiss.png;imageBorder=default;" vertex="1" parent="1">
          <mxGeometry x="340" y="438" width="40" height="40" as="geometry" />
        </mxCell>
        <mxCell id="hGcVFv6qGG0Ev_nQUmDL-38" value="Doc, PDF, PNG" style="rounded=1;whiteSpace=wrap;html=1;fillColor=#fff2cc;strokeColor=#d6b656;" vertex="1" parent="1">
          <mxGeometry y="369" width="120" height="60" as="geometry" />
        </mxCell>
        <mxCell id="hGcVFv6qGG0Ev_nQUmDL-12" value="" style="shape=image;verticalLabelPosition=bottom;labelBackgroundColor=default;verticalAlign=top;aspect=fixed;imageAspect=0;image=data:image/png,iVBORw0KGgoAAAANSUhEUgAAAREAAAFcCAIAAABgMB1rAAAAAXNSR0IArs4c6QAAAARnQU1BAACxjwv8YQUAAAAJcEhZcwAAFiUAABYlAUlSJPAAAAASdEVYdFNvZnR3YXJlAEdyZWVuc2hvdF5VCAUAANsoSURBVHhe7P13nGRVtf+NP3//Xs/z/d57FZjpULlzd+VOkxiCSBABFZGMoqIo4jUHMMsVFVERcxYzYgAzBkARgckwoXOFE3c6Odap81u7ekAc9MrF6RnGW+XHoqa6+vSpc/Z7r7X2Xnvt/yfuPNpPeDz+TvSPHquf7z66jyc/YmhH/1DH5uO/YSaO/pGe+PW76uqJ+svjr34AjSbqPK/++5h8HMrMwX/GcavdVVdPX+CErPohfwVMFMVRiwvIOdaZefzR+ZrglbUdP7S9rrp6mnK8wPUCzw/CMOKArD5WsWn/CzHToSVqtVq+H2imTXXrvxfhMrvq6lBpJu4IGolheZ7f4qQcbGQdcrhHc+wzswpMGIae51m2jagmY/aPhWhXXR0iCdGmQusyachExrpmgsmJwGH7K0qOVWT+mhmwMK7rmqbJNB0xQ6FddfV0JBOjrmqLAp6vyfN1uakwanhuyOOcVfvCeTl2mQFUVl+BkQmCwLIsxhjCRKH6IRfiyZK76upvSSJGk1iLIt27JO6eqx1YERuKptmBB9hAS+vosXZ37D04M6vYADN+EBiGgQmRVVXGmkz0/14S1rrq6m+I6KLmLklsz4Kwbe/SrgOAjSISS3dafhSHcYecfxTU8B8+I7nqMNOZaoEnP2xR3VAplQEbwmQC2HTV1f9YEtFEZixJ+JFFYfu++vb9zd3z8oE6bSCL2aHXBmzarbgVhK2o1RkcWOWD62C7hP+CIxe0nonY/D/8pJ7ADNHBJaMyxwaY6aqrpyOJagLVgZm9y9LOOXHnAXhWds8rB2qkrhrM9t2oBTi0OpM4nRYI5KyK/xP+BcCEHT3zkOky09UaCJgRmb4sk30r8p4Fefe8umsebd8v7Twg7ltSBKTrjh+sWhduYIASTtBqpAOv4cEtELTJg630mfXoMtPVGohqkmYAM2Bndi8ANmjPAtm2T3rokcb2RxtzNVXCpuGGYEY64wEAzeos5yozYQheW/SkselnzKPLTFdrIM6MCcw8uiTumhN3Lai7F8mOA+q2vdK2R4VH5uWFOmmqpmZ7btgKuS8GdKzi02q3w4h7bfzNLjNd/a8R1WRgpjMGsONAc+ecvGuR7FqgO+bQjv3KrgPK7gPyvkWlqTJqOYBNJ9Tn2AAw7ceGo+GdLjNd/a8R2BlmcGaWgJnGjgPSznkMzOxeYHvgeR7v2Cft2NvYtyzUFUIt1++kpK1i87g6TRJePOMeXWa6OvySiCZRYIbHM7vmhR1z0vY5BYzMznmye5HuWSQ7Dyjb9wk75+v7alJNpYANWJsOHx1rAwInjQPzTLQ0XWa6Ovzi8zMEmKH7a/KeRWnHvLTtgPTwfk7OzgW0ZwnvWUDgsG2ba+yYbzy6Itagza1aG+6Q8SEBCGna3PY8Ex9dZrpaC4GdsZYltm9F2b0g7pzn2Dw8J4K2zUu7FpXdi+ruRWX7vLhtrrl9rrF3WWwoVDNdP/yr5b8HG+kz7NFlpqs1ENUV5i5L2iOLIsQzO+fF3UvKziV5+6K0DVy1eaBI3LkgbV9Qts2BCWrummscWJEEmeimEwRgYXirBKNzMEvgGfboMtPVGgiY0bxlke2eb27bV9sxJ+xZUffU1J3L8vYFYTu3Lc1tc8K2BXX7vLJ9Tty+r77rQP3Akiipmmn7nJR23Gq1wyBcTex6wuPoM9Rlpqs1ENVkZkI88+iStOOAuGNO3gl4LAAw4g5w1RYkeAe0nZsaCHIg1Gk+vLexY79wYAULyNSd0O/kpIVxGAWtJywh4KaH+2wdcOAJGi3oCD+6zHS1Bjo41kz2Lsk7DwA2yo55FSIZCGA6zMg75xV4c9t8czt31QAbefsBecd+ec+8Ml8nAjaY4zlRC7Dh42d8CA2aKIhPenJSOsFOFB18+wg/usx0tQZ6SszID8/Vt801gZldi+ruBbx7Hu06ID0yL82tqE2kAzb+6mgzH3nuVN54wtQNPFoteDoKzlqXma7WQE+Nme1zje3zjR3z4q5FtGeJ7FkgO/dLO/Y2d+1vdrAxNCdYjW06o2lPYAYYisIWh+ZgOz6Sjy4zXa2BngIzO/lcjbBjYdU9U3YtoN3zeOd+ZfteEbABazNfx03VNG0fmiUfguaeGTTSVsQT0lZz0jqxzRF/dJnpag301JjZtSTtXBSBmW0HRDA7Ow+oXPtlsDbgpO2Zl/cvIwnrmu26YFZ4KANqBZEPzDxmc7rMdPWvoadqZzgz8M72ORGw2cYX2KgQ1ezpxDYdioS5FamJGAVsIsAmXsXm8TzOo4JNl5mu1kBPKZ5Rth/g85u7FuVdi/ABedXa7JpHuxfx7gXOzLb9wq65+oGaVFc5Ng5EMB1sOk5aJ8JZze08so8uM12tgZ4KM/vlh/Y1wcLsWlL2LCPABn66HbCZB4RUEAQ5QNHD+2o75+r7lkXAho+kxbwEBx8XgGCmFXYWRR9sykfs0WWmqzXQU2JGeXifwJlZ5Mzw5JpF+IDQGRIAciT+sQUwPsK2/Y2dc419K1IDaYCN11k40KEGsOmYnCP76DLT1RroqflmO/gCARnw2AHvLEq7FlfDm+Z2PtfZ5J9c5AkEfNLzgLBrvrG/JjUUwiwHGio3L2BjOkNoR9jUdJnpag30lMYAwAFD8GLbAQmMSSewkTojaWBqGtvmG9sXmjsg1FnCOxfRjjlp2/76jgO1vYvNpkINy+OrbaDZttpRAP/nDfjvPeAnh5epLjNdrYGeCjMHlJ3zHSPzuBbAH+PPHd+Mu2f89SJ/7uSkCTwnbV9z/zJq/nVOWhiEPAP64IMzssoJCN7lwwb/HVP/40eXma7WQE/RNzuEmb8h8ankpEFcE3FjE3UWrQEmvEGDx7aaqraqLjNdPbN1mJiBz//DnDQPGm8HEV4WLQofT7GJ2q3wsTpphxEYeHSZ6WoNdPjsDMQ2TzEnjdfk5KaFA8OZ6dRJa/FEtYNt/XA9usx0tQY6XMzwRIGnlJMWrNLB+VhlpsX5Wd2E8HBD02WmqzXQYWJm58LqSNo/yklTmW7yAWhODXfEoC0f3HyAi793OLHpMtPVGuhw2hnxH+Sk7RcOLAlNiTDD8SF64cNlj1sbACbiuQKrbx+mR5eZrtZAhy2ekbbN/aOctH3C7gP1AytSAxpupyonsNKxLHzk7OA20Yd1nU2Xma7WQIeJGbAtD+1r/Pc5afyfBxq755v7VqS6SqnN66R13DK+lJOPRR/unLQuM12tgQ4bM3wq8x/mpPGZ0Hlh54KwrybXEWO25z3mpHUCHN68D+Ojy0xXa6DD55vxz/yjnLQdi7yoDXhxOxea++tgbXhOmhe2gBSuVjs6rDlpXWbWUApmCtEU3oCYSKlAidS5tgqFn/IN9Fa1up8efF4iFD4mMgqflxn/Rf7r+K+OeWzoMDEDnwQHDD783+akSduX0PYFdRs4cvvrO+Zqe5eFpsp021slpdWKgtU6aX//wdF6ylB1mVkrQVvHMqNYw7ouWHTZVBZ0oa5JCoNukKIOLQ0Q1WWqY6ohTESirFBp2VTrDpUdkxgmQTqW+KEOOfgzXYfPzsCH/+qdv5WTdkidtO37m/tXeE6a9sScNL6lTcdJW+XjCUEO/Bfoeup7d3aZWSvxOt/IFIkpMVPSdMBHYRgIApQQxQoBERkTScXwjAAuLgJCGlM0HdqcSC2J2DK2O7tkH3r8Z7QOp2/2D/WUctI4I3xArUPL6j/gdSfegZbP9+78C0T/4NFlZq0kUb3OvBp16thUVIMh08KmSQ0MfhrDIkUqQQQjVZEVrMoaVXSNaoZJLZs4TLUk2VhRTTiCYAQSNQ45+DNdR5AZOOZTyUnrDEBDY486I2mPT3dGLT64djBH7Sk+usyslVSq67rHqKOquqCwuqqtIH2ZaCtMrxuGaHDj04lbdFkzBc1cwmxepQuq1mSOzFyVwC+aBNtwBAX8tycd/xmtI2tnnkpOWtDBJupAw+dtVv8FAHVy0jqDbE/10WVmzcSYZBFFQ0hVIeonqqliR1AsQbZkxcbIhX/K3PVyVOwi1RNEsy4YDcnExNOIoyFdVVSJqqJJOFqHHPwZriPJzFPISWuopu74B/fufGy9AB9Qe1p7d3aZWSsJjCzYjWW9LmHBRNTBtk18qnhIcpDoUMkhko1ES27qWLSY7GHRhfeJ7NrYt5GlK1hQ+a8vuaLIjrXbcQSZeYo5aQKEiYdp784uM2slidAmkVY0eclENZNKmoaoIZjmcmDNt81lB4tCHe/brz6yV2iurDgE3lzyzaauw8fgwys6WdAV+HWRKXyE+knHf0brSNuZf5CTtmO/0Klc83f37uzoqVLTZWbNROFKOiKx68RYYnRZQw3clBb3qffdg771HfyxT9H33ahd934Qfd+H0MdukW/7pvj7u4X5RwQq1k26Ymg1ognY5P5bd9zsv9U/zknbL+yY43t38jppT9i7k7d67qGtrrrpMnP0BR5ZjHGsql5NRosrc8s7/kC++23/Te+Kt764nd4YJipetuLnqq1ktZ2ejTada137VvVbX6/v/lNdXBYJRRDzqJGC2jLpjpv9XT2VnDSg6OED9R3zjb2PbXnb2bsTHp2cNL6nTQeip/boMrNmQpq0YhEaGW4LLy+L3/yu8Mo3mBvOaQ9ujvsrcW8+7svH/fm4ZzTuG48TxTg1GQ9tNjecLV71RvG276DFecMNmBapTVdGXTvzd/UUc9K2dfbu3NFJ5WwoTDNdL+hsxsGXqnF8DgLxFB5dZtZKEmUNyrAgOdt2G5/5Gr30dXT8lKh/Mu4tx/3lVn8hSpXbmckoXYlSpThZjJOluK/Y6q9o+VPYZa8zPvtVZ/tOIoqCrkmUZ9YcSzqyvhk/zn+bk7ZjUd62oPATmBN2zzd4DejO3p2+H0Lz5+JTNV3fbC0ldUJ8mWgK0UWq8zZNmUKowtPGdBkxkWpNS1uJMN7+J/ejt1pnXGJnN3n/Ph73VuLMdDw4Y6TKNDdJRzZqo5u0wSkjU2pnq3EK7E/Jf/a4O7TFO/ty/6Zb8fb7lyO1YQKBmoJ4WhpPSKNEgT/HJ23gT+urf/qQMzzKAmYoMEP/mhl5O2/f0JolYGbnHLz5xHb/NAUEPqWctEW+d+eOOWnH/jpfb7MkSAozO3XSOAF8WVpnFPrvgwM/gU/Co8vM0xEAUycKtGBMvRXNbmiaqiEIQDDRkepKK2xF0xfaeoM18ac/Z206yxwuRZlqnNxoHzcZ90zF6WkvO0GH8mi0bA1PGUNlc2ACjAz8qNW7IUjP2rmyNVaJT3qR9sWvLZrynK83qIGbuoyNGlOXNUEzmMZslXgCcxXGMFWeYdgA3saKSPeBpwTMzKk7Fsi2BfzwvPowtGzwoxakRwAnnjZ2GATY/NU7fysnjVsb+OSctG2fsG1vY+c+YW4ZiappOGEQ8brprbj113t3dqzPYw94A+ji5TvbXWaeloCZBlUVahAarGhOXWMKUzCWEdYV7MuC2aRaQ6mj2+80L7s2SFW95HCcLsXpTRYAk5iMs9VWetTJTLjZCvATZkpedjxOFtqJSTcxG6ZngkwhyIzFmVn35W+R7/xVXREkZhLZUrBZo8oya2g6ZdRWsFdnrswYeyYyY9Yktn9Z2QVd+5yyfQFvX6Tb5vE2eD3H3ac9YAoOEzNPQeJ2HswIOwGbTkLazv3yI/PKQp2IyNBsz+U7DnTGzzgzHVo4MHwwrTNQwOlYzVODR5eZpyOIVQSKVWpi6jeY3WBUorKiSjLWRRYozMMyZg88ZL3sHa3SWXFPIUqM8ig/Me1mpuJcNc4W2/3D7b5C3DsT92yK+ypREgjJt7JlKzsZJirtVBH+GZ9QiKrneq/9oLZjDyEa0j1gponVOmkSnRBiSqq7TB1gRuMAP7OYUahZl9lcTd0NYMyBV4bA1OwAcnj9ZbAwYmfy/pCWvXYStz2Wk7Z7Qd2zgPfM/SUnTUA6X6Z20LwAKUDJX/JronancNrqMAGoy8zTFAVssEIM8I5k6ogcIVlRZIHodTOQHF8/sBR+7fZ44/lgK8DC+P1jXu+4nygFo9NxthCvGwyPG2ytq8a9J8e9z4lPmI6PG4l7hlrZcWOk5Pbnw2QhyhT83vE4szE+7aXhD3/J6k3JdcE3k1Ukg0+hA7EGMLPIbABYJ6r6jLIzEH0xs6lqi03MfTAefIP7hHYuoJ1L8AyRzGrHf0jLXjuJENh0YpuDOWm7F8mOA9L2fc2d+5sHamqDZ0DzOmkAArcsjwHDmYnCENw3Dg0HpsvM0xUFEQjBFWwjbENEITJFUdUmM5Zsv+nY+j1/Ct/2X87YpiCZb+cqQX/BTZbsXNUbqbT6R6LjB6ziluCMy+NL3tG+9LrW6S8L81vbJww4/YPacN7LVlppcN4qRmrCTxTiynODD38ab99R80xghi8hUBVZJ9AoZewuaLZIqY6UZyAzAtaXJbq/Y2q27Rd5lv68umuJT6F0On5gphNsHAGBQVsUti80t82DcVMA3V1g8Q4o2/aJ2/Y14fQONHADmUZn787OZM0qFeCLtfjGA7w851/Go7vMPC11mJEwk5BJkYUYkyH4x6ShWwu2V9MJ+9Yd/nkvJ4PjemokyFXbfZNBdsYenXWyBat3WM+W8OVXOR/7XPuHv/F/9Dvnps9bF73SzBS1vkF9YDwcmY2zs1FiiuVKenLEGa7YL3+D9NOfLdrcsmmKBqSKOpE1U6XeomELBFqoouBnFjMyM0SwugpbAFOzKG/f3+xMxku7FlTODF8idgTtzIK0cxmwAWsjPDwHuMrb51SuA/J2PkQh7ZqX963wnDTNcjp7d4KJAXLARQv5AMFBm9Nl5p8RZ4aKhIGTRFQDE76eDBGtYbiLtlsXa/Sjt3qV082BMTc53u6rxieAh7YpGN7k9+bN0Y3ohZc2v/dNZe5RYhuia8j79qCvfx2f/RJ9bMZPFeKhjXFiQ3z8lJee8hLjXnrcOPmFwhe/vESbSLN1ZDIJNyiSmIGYt2K64BnSZx4zEtVEqgtY46ZmRd55oLF9bx3IAT+tw8zquPORErczImg7x0YEbB4Gx2xO3TnPDQ48d+AR9i+LDYXnpHnt1U1uOTZAxmPMHMSmy8zTEvTsmiYSDXomVWEqwgoGO6MLpl8zHHnvI8bb3tfKTsdDEMpX4r6ZeB3HIExPt04ouadeoH3oE8L8I3WLLPvOgZa7rCN513b93TcGJ70o7inH6al271Tr+Kl4YHPMR6jzTn6r8qGP1utzRHcYsZGIa1gVqYaZ2zRcmWkYIeWQMzyqkqA3oXySCtRQ2UJDfXRR2LW/vpPvWMbnNHcsKtsPGSBeY22bA99M5JtALfE/ve0ABFQQaIGjiHctIHj9xL07ieU6YevgJoSrtECEw0fSusw8bYHvoUFXqgMzokpkCGWgp0e6aAYis7X7/uRe9YZ2z2g8WIlz0+3khrh/U9Q/FfSVohMmw8vf5Pzi96pn1zx3TsV7CV10bAhSvNt/Hr/k2vgEcOSKfm/J7ZuKR06Oc/C7hTBVYW+9Tn5kB9MdzBxJxCtIBWIxdWTNBWdNpZibvkNO8ugJmAGPEbCRmCYQbUUi8zXl0QVh97ywax6YgY4fTM3hmdN8Kno8J233ovLIMoLnHXN/o07a9gONXfN8E8Ia3A/L6VibTmzDS9d0mOl4Z11mno4k6EQZtAluapoYy+AZyYqEDFEPVFl37vhlcOErguPSTv+InS57udl4YGOUqfjJCSezyX7Ljdbuec1uEc1FDRWMhkptgmz/D7tbr35P2FMN0hNeruQNzUQjW4J01V033Fo/Yr/q9eTeewnE/boL/kODYAmYIZaKLYWv9IRbduhJHkVxZigRGWcG+hcBsZpIFurq/mUFYhtgZvu8vO2wJc48BXWmMnccEHcvKI8soT1Lyi4+zH1oThofzTvQ3DnX2Lss1gCDTgZ0uDrMzBnhmHSZeZqCNgGtFvpRmeoNhhWkapIKzEiaj+vU/9LtwfMvco7rs1NjTrYSZqbjZLmdHHMHxvWZ07WPfwn6XkxDhVoyOFWMSMSQRNPbJ7jX32wOzdpDo97gWCtXaqUngRmIcNonDHiXvpLd+XNw/5qmt4I1SdNUaiBkAqK8geoUMD7kJI+iOvNXRKC86BRHmuoi0usyW2yQvcsQQsjb5qSHoV8/pGWvpXbOybsOyLs64f7uBWn3orQLXLX55o45rs58EWCjbp+TVrHZvyLWwd81bY8XpOk4ZQdnPLvMPC1xZjASCTQIo6YTFSNDRhL4ZroHblN401f9086zT+j1B0rhwGSUrMTrxtq9g+7wOD37fPSt2xXTk1W3SfU6xCYuq1G20mSGqBk3f4FObjVHR/3sUJwYi3tKUXaqNTIZn5DzXnQZ+dYdisIawAzVkWEgZqjIUCVNwqz5TGOmY2c4M5Qzo2qGykwJGzVJm6t3Zmz4+rDVPv5IaOe8tGdB2T3HF5/xcYg5YfcC+GnirgUApr79QG3HXINjw+dbFXDhtu2v7Zqr7V9uCirVLTA2HBCIaKKAu2ddZp6meM0xCPopX08mU6xj1CS45tmipPjv/lSw9RyvPxdnq2Gm7CYn4r5qvG4iShf18y9v3v6TZduHMBNjaFsYMa3J2BJf1Mnw575kbX4u2JYokY/ThTixKcpOO7mJ+Lisd85F8le/RVQqm24TYUSRAs4PhUjGUYkpP6MGzTrMiITCM3iMvLIhg0aly3zIhNZlvCyqi015rg6dvQA9fUcNaLWPCRrx4dcOeN6/qhpAcvAd/qL2xHd2Qkgz14R3dhyo7Z5v7F0SlkWMNNt7bMi565s9fakIsHkCM+QgM4Is+9d9Mthyjt8/GGeAmZKTmogS0/EJ+XayaF7wUuGOny45AaMm+Ge8shm0JMaWNVpnDH/hy86JZ7SS01FfgTOT3ALMWNmx+FlZ9/kXil/5JlWpajoi2DWC4I8KVFM1F5hR0KGnd9QFwHSY6VQD7YgPQIP9QaSpoLqsrojKXEPdD0FOXdlXW5W8d2VV0qPLR0F7l8R9y9K+FfnRJZH/cwVeS0siXGqzy8xhEJ8P6TCz3GFGI0jAuO6CnZH96z8VbD7H782105UgU3LTecAgXpdvpwr2BS+V7vjpshMQiEZ4T0xUoolMq2mswRj5wlfcLZyZVl+hze3M5iizykzGef5F4te4neHMIAysgZ3hzDBuZ44JZg5ig5mICCdHJXVVq6k6l6KtrEpmy6uS6FGQSPizTBdFstR5DcDUFYo087EqAl1m/hlhiN01YKbGLxemBEFTbtq2LMjeu28NNp/rnZANkiVgxs8Ww9R0tB58s7z34peiO35adwIEzR2YoRTiTGCmoYO10djnv+xvPiNKzkT9hQiY6d8EzNjAzH+k7XMvlr7xXaQSmTNDMMFwmyQKcYKrgG+Gnqn366+ZWcXmMekysySeL2c9LpHwyqOrEogh4CMqEet8PIZn/RhC5xyaiEnQH+qWz7M0gRFOTZeZpykwEXxOkxoNPnqGMUUSwoJpK03Zff/n/C3nec9Oe8likC21cqUgPR32jLfS48GLLme339W0g85BDgbuwIyg8+Ev7TNfCjaeDsy0+gutdD7u29hKTznZ8fZ/pK3zLpW/dbuqEIkzQ4EZ9SAzjgK3+RnHzGNgPP7iL9joPLw5KPOJkkHUeFzw7SQCl+XIiScQUkPRTF64lMIpWQCMQjSmm6vroPmqgC4zT08dx+MgMyK8w7DKgBkiGTZqKO6NX/JPeqH3rJSTKATZcjtX8jNTQe9YmBlrnXeJ/t2fiJYvcceMSoznmPCCmpoO/pVx6xfD2dPayZkwUQwywMyGVoozE/1HxnrR5cr3figrVDRdEbPHmVGoIz8DmXmiSeFrafg7f8GG6eoqM7w0z2NvdnTww0dJYPP5abCD8Kg8C5ZXpGe6EYadzdI6BTe7zDwdATNihxkR2itmEiUSwwoEG7pDGsj5+De851zggkOVKIaZcpwr+5lpv28sTI+0znyx+Y0fyJrDh5XAyAAtHWbgBYK2/4nPB1OnrjLjAzO9s8CMm50In5W1LrgS3XGXpDDBcOGvE4IR/Dp0zxTsDL+1h5zhUdbjDBzEBt587PXqjzrAqFwaiG8Z8hd12u7REbjKXOD9wkXmY32IQuDKNL0VrqYEdO3M0xVnhq/L1ySIvzHYCtLUMBgKpHsQmFuf/a571iXus7N2otQCZrIQ1UwF/cDMcOvkc4wvfEvBpgjhUIcZcMy4kWE6FpBx02eC8snt/mnOTHaVmUkvOxEcN2BffBX5yS9ElTU5M9pfmGE2+Gbg5h1yhkdZjzFzEJvOmx3jzPVX8Pz34mbnCFkeYEalTGWAyhOYATuDGdM6dgZIAXWZeXqC5g7he6d+hYmxJjJS15GCNGz4VNLMr/7QOe+l7vGDdqocpctxuhBmJ4PkWCs1FMyert/yFVliwAyfu2AHmYG+FtcU40Of8vMntvumwmTRyxUeYybvnzDkXP4a7ee/EZDWNDzwvAl+AjPg4TzzmHkciYOEPJGZJ33m7+nx3z0SogxpXHw1FJ/vAgcSDLiuYp1qZri61UZn4KzLzNPRE5khSBMYXjYQXF9sBkw1jG/fZb/4Fe76ETddbadKcSIPzITATHLQK21lH/mc3MAQzAAwcFfETjADnZm6KGrv/7g7urHdCx8uegOcmSg16ecK/roR72XXmr++V0RGhxkDYwJ+9kFmGEQ1/JYfcpJHVQeb+1+1/r/zmX+gI2Vn4G+pDJxGfiUF8LeZoeoWHxIgBtWsg/sKdJl5+uIZuxDBQwdvUuj7GV40eTxCrJBhy/jBz+2LX+X2jnmZqThZjvsnwmy1lRptJXL22Eb6wU/Jywp4U3/FDGLKfJO952PO0Gy7ZzJMlbyBYoeZKc5Mz5j/8v+0fvNHAZtN0+fMoA4zfGynw0znTh96kkddnUb/ODYHyXmCeCz3N8Tz01YFr5/00zUUNHvoyyDUbKLOmKTuyAywMYlm+/7jSwG6zDw9cWbgGewDtzMQzAAzCtaJEVJi05//1nzZNV7fhM+ZqcR9+XaqGgEzyZw5MEmvvwntb4BhUTRDZrrAmKQZ8LvKvhV23Y1ubrrdN9lKlfxcMeqbBjsT5kpB77j/qjeZ9z4gYLAzDsQzCJjB0ApNFbCB5vXMZAbUYeMgMwfHyv7CTweJvyVmHBQfcX7ST9dGfEQHEwHjJiINlYh/YcYimuMFnaIzXWaetsA3EzWmEg2rEKfShkFqJlIFhDBcZae+42H6hreHiZKfLbVTk3HfdLwOrM1YlB3SkhP66663/rSHKbpoGuDRCVgRDEcwArzjEesN72olynFmMkqWADkvkQ8y1VZ2OuqdcF7/TrJtlyjjhkaamorB28bgbRt8uRshq2PWh5zkM0MHTcrf1hM24n1ch3zmkJ+upSDW4i0fvG4BU5H3RCaEjgrRqW75nU1sgZUuM09THWYo2Aqs8GsNzNRNhJoIIVvSnMb8o/S694XZaS9TDNPVODETr4OoZjzMjRi9Y9bL3uj8/H5d1iXTWtGRgGTBdAWjRR7YZr/2ra3efJyFKKjs9+a95ISfrrQy01GiaL/53Xj3XlnBYNMamoyJgbAtcWbAJ8R8IIE3wUPPs6v/mVZbPsQzfMGc9kRm+GZoXWb+GXWYIQpmiC9f0Tgz0IZFDO1Y1ly5vqj/10f98RO9dMFPl8PMTNxbaqfH/cFRZ/2Y++LXuN/+BbRx1bT5wiywM6YnagG550/mK//T7xmNM+V2qhL2l4JUwU/Bc7WVqdhv/wDZO6cgJuhgZ2SyygwxVcyZEfiYxKEn2dX/WF1m1k6rzPDBe0WXsd7UwT3DRKEIW5LuUCSZt37emT3LT+a9dNEbmg6TBT837g6NRcePhadd7nz8NtaUVcPieWIYSZYnUZdBFHTF1e66oShV5PFPshpmin6y6CXKwdCM9Z4P0/lllRqizpq8ZidnRubrNJHElyF0Eu+7+ifVZWbttMoMNFNF1RVsCBpr6Igi8NZMUXN0g5m3fdc686JWshimCu7IFBgcZ3DCHc7Hzx6Ppl9ovf1jaHlZ0Q0FAXJYtj2V2MbtPzUvvNJel4PfgiionZpuZct+khdGcwtbjP/6OF7hdWdEXWtSBSOIZ3h2o0qwBGFrl5nDoi4za6cOM5jnv6iGii2RdZjB0JYNgdmGZxt3/sK45LVxqtpOTHgjVTeTd4YK3nAxPi4fj51uXPl2ae9uiY8iWNDiZdvFyHS+erv9gkutddkwUYiSU+3UbJSrBMBMqmRNn8pu/owqKKrmiprWBExUDf6uxDrMkC4zh0ldZtZQED9oiDODIKKwRcoafCyLyIg1ian5nvb7+/U3vCfOzsY9Y3yCJT3uDRT9wUp8QrGdPdE475XSA/dKBCmmLxIsWw6TWXDL17yzXmyvzwT9+RZnZkOcq7ZSeT9Tsk46m3z2K7JMZM0TGGvyuhvAG9g0U6HADBE6Iz+HnmRX/1N1mVlDwfXRVZ5yhiyEXYnqTQbMYIhPGthQXZ9s26Pf+Ol4/CRgJkiOhYkxCE5aWb5hU5Satk55EbrzDqVZl91WE0gzLdZQWx+8NTj1HLs3zZlJzLSTm+LsZJTMB7my9bwL8Ne+I2Jd0LwmYU1VJGBnqCXqpsyrNPGMhC4zh0FdZtZQnBlFYLSJbIwChYBLpkJAI2NgxmxCfHJg2fjqD1qzz2v154PekahvvJ0st9NTUbIcJkru1HPY5z6L9+9VggiYEXWDLjWjt90YbH6u3ZcKE8VWYjZKbOa7oCXGw8Gy85KX4e/9uKHZDeY1CBVUkWEdMUt4jBmZGXw245CT7Op/qtWW32VmTQTXR5ebjNSxTVAIYYnIEKKqwmvh2Uu6I9UV82f3eGde5A1U/N4Rvm9mfzVOTDvZipsYD8Zm7He+m/3hAdkNgRmBaXj/Uus17/Kntlr9yVayGCU3Rokt7XS11TcaDJaCl72W3fWrhu3XNK+OwSGUdGIiZjc1AywO3wm9y8xh0WrL7zKzJoLro0kNileZQcSWNAgxFJUykdoHmCUqzPnTTuvCV9gTG/z+sc5emVNx74w2ULb6h1uZvHfla7S7fsWLyBDSpFR95EDw0jd7xY1Wf6KVKrU7zESpatg7HAwVW695o/7rexpea0XzG5gpSDaphTWnoRlChxlFA4PTZeafVpeZNRRcHyY3KWlgC+MAEUtmWAFmeOVI6wA1RGo5jy4Y17zFnjk1SEzE6TLPoFk/i4cqZmIw7hsMzzjf+Or3ZGI0qCZgjB/e6b3kamd82kqko1SFM5Pc1EpXODPDldZb3qPd+0DTa4GdaWKwaKpBLQSumn6QGVnr2pnDodWW32VmrcRzYBlE3p0lXxpfqMyrasD7uqSZ2LD15ab5sS/4p18YrRsNU+NxbzVetxGPbXIHwU/LxblJ8/03i01lyWohSfF/9QsI9PWRKSNTbCdnosSUlyoHQ+UoMRGNn6R97Mto+x7J0ms6kzDjvKqMr1nXLbBsAiV1Xgj3SWfY1f9UXWbWVB1gnvAaU7Ej4EfVDGxYTJCN790VXPSauCcf5sajZDXq2WQMbfFzRc7M+nHrte8Q/7xrWQ9Rvend8X395LO1garFNwLYECUn3VTBGyxGiUJUOI1+/nvqowdki67oBP4QkZmowk3VZd1UeU0CWmOky8xhUJeZNdXfYwZeK0xHusnT0f74oPe66+L0ZDQ00cpWWomNYXozhCtR/yAwY19wlfKtn9RVCy0sW1//Ops9zUiVvPRknN4UpSadVN7L5lvATPUs9o0fo7lF2WLLOhYIgchJQmBnNJkvVuO7nzdYZ6X0E06vq6ejLjNrqicyc/CfAMwqM3zFH196qSzXjA9+vDWxJRocC3L5IDMT922K+6pBYizuL4YnvUh798fUOqKP7jNu/bRWPNHuLbSSU3F6Y5SedNITfno8SpejzS/Qfng3qjUlS1vWSZMQFfGytxJPVtcUxNdICRpPTXj8ZLp6muoys6Y6hJnH3zn4Jlzxzpoq+pVvO6e9IMqMBqkRLzcZ926M+6b8VDEGGEonO5e9Ttszp//pQeuGD5ujm/x1EOoAM7OtTMXJjIfJ8WhwJjzzUu03f4KYRzS1FY3UO3FUZxkjD/ollfDt1vhmON0xgH9aXWbWVH/B40lv8upNYHCoLrmR+ovfaq98TZQeD3sGvWwp7ptt90/7qUqcq7Rz1eCk86y777Pu/Lnzluu8odnohELcNxknp4NM2c2MR4kJsFHeRVezh3YjOKCu1RiELrTJeMEazgwYGZUPPPBqT11m/nl1mTkqWsWmE9gY2I7VXY/gj98UD820TxgO0sUwPRMAEslKMFAO+sa8/Gb9s183Pvk598qro9x0vK4IzETJqs8r1ubjvnwweZrxmreSfQuIp5bxauh1kMbXRfM6RmBkgBnaWSbdZeafV5eZI6NVSJ64iPcgM1gnLJJrNenO70cbnx/3lYP+gjUw5WWmokTVGyh7fWPuwBS+9np2zVucs8/nW2f2lOLEVNBhJswW4vUFd8u55F0fUlYaimGriB+8wdgKZ0ZHfCUCLxYOXll3TvPwqMvMWuoxQh5n5mBpCLh6nZXlwAxiWHUErDZ2/DG84Op4aGu4Pq8NVXlUkwRmKl4y72Wq6pkXkzNf7MyeHEOQ01+KUlNeuupnS61MoX1C0TrjYuWWzwmyIhkOkhgmepNpyxpVNA0ThsDO8NqCepeZw6MuM2sowKNTQgVe/xUzj5VWgX/yqEbRajqpr+z3rr+5vfHF4fFFbagEXlmcKod8z8BqkJ3R86eaxa3BGIA0HiULQJGTqYCdiVKF9vEl6/yrpO/eXiNE1GzSoBo2RaYtaVhhDGOK+QAAFfl+ml1mDoe6zKyhnsTMQWz+Ur2bD2QJlNUdXUCC+9U7onOuDp9dNnP5Vi4fJwutRClITYWZDWFqQ5SdjHOFODkapPJWtmplK3661E4U4uOqzhVvUH/9m2VdF6jNVqiJbIlpiwwBMwRTwmc2GWeGV9TvMvNPq8vMGurvM/O4ZKY1ddZwDUmj7r0Ph1e9N+jZaGcmwvRonBxr9eaDxGSY2hj3TMX9xTg1Bm966YKerZjZspcpRMl8e92Uc8178LYdy4YhEIvWqIUsOOwSwwoFZhhBjzPTHQM4HOoys5b6SzzzN9587EciUhuUNCkzmrJ30ze86ov1ZMVJDLfTw3FiPE5U28kNcWq6nSxFiYk4WQkTk0YCfLOCNzQWDI/56Q3aez4lNRHcP57YhnhFNTgyT5OhB0vZ8z8EzDw2XdPVP6UuM0dfiFdRauoGY7r93V94F7zBzm30eHHA0Tibj1PVuH86Bg8tWeS5z8nJVv+U1V/1ssVgYDQcHveKp7GPf00iFqfxkCOvCizbY+oycxjUZeaoS4VLrxlNy0amqd/3oPPum4OJ57YSxSg3EQ6X2pkK3885UfWTBSc1EacmW4kpp78aDJRb6bEolw9OvUD/yg9kw+Vm5EkH5+oyc3jVZeaoiy/b1Iy6aQuWqS4taLf/qLX1wnZ6upWccEc7lWl7inFfyUsVjEyhlZkE38zvr4YDlXYvxDyl1mXX6HfeLbs+976edHCuLjOHV11mjrY0GWsCMeqaWTPNJlPUHX/2X/bm9sRp7XUT3kDRyxZafM1z0U0VWa4YADPJathfDnLlaN0YxDnBOz7I7n9Q9H2eGnPowTvqMnN41WXmaEtTsC4ivY6NFd1aCQxBXrQ+fGu09aL4P4oQw/iZfJCZiBMFJ12kA2WPM1MO+wt+ttg6fiIaOMm59Ut4376m73WZOULqMnN0pRANU1NFhqjoTd2uBXYDWv7PfhFc9qb4+A3x+mKQzntDhThVcDMlNlABZoJkye8f91L5oKcSlM/Vf/Bjub5Sd2yp65sdGXWZObqCdkyZgbAuq5qo2w3LamhY3rfHfu8n4olz2j2TfjLvDOWjdN7NlPXcVJCaCpJFNzHq9Y/7uS3uGa8kv79PUMSaofP796Tjc3WZObzqMnN01WFGR0STsCZqlkANvnsWkfXb7gjOuTpIb/YSBXdgPMxMuNmynZ1uJ6ZCPoA27PWMeqUz7Ze/S921p0lRndG/u56sy8zhVZeZoyuF70jOr2RdYw3NFFRdljRkmeT+P7P3fkyrnuWmKlFyLMiMe5myn56Oe6daybyVHfLXj/hbL7Df+xl1aUXU4f51SnP8TXWZObzqMnN0xZlBSNTIks1WdENSDSpZhunT5WXlhz9UeLnAmbhv3M+MQTwTJmfi9ZOtVN4YGArXj4TPe5nzme+poiqbpozJIUf+i7rMHF51mTm6UgjFqiLoeNHVVzRDQZahOrYeEDAdex4WXv56v3ByvH7Mz4676VKLVz+bitJFc2AkPGE4PO/lztd+iBBWLIcvm4ED8l2ZNHDSuM3hm9ZrcC95XShw2xjfnhs+8MS/3tXTUZeZoy2qEFnUaEO3m9iixLT4prO0aenNRkO46bPuKS+KnzXYHij4maLfU4qTs3FutpWteM8adE85x77pZiQtADMKCmWkSYyJhtYwmICpIlFDsRjfu9NaprjBVEVDXWYOg7rMHG1RhcoAicgcGTuEmkyjElKahtZsNNUbPuOd+ML42QNRLu9l+WZm7cR0DFFNuhquG7WrJ2mvvlb/032Kghp6KPOdoeAW6qKmiWDBVMaQjYkjMHMZI4GomCGly8w/ry4zR1tUpQq/mMTB2EXEUChSZFmkSJybM675YFA5Mz5hMMhMuLmym5n0+iqt/kqcqsTJojMwRU5+gfeF29DeA0uup6gGUnSEdBVuIdxLyheZATB1qtURkjGihPAc567+SXWZOcqiDDGkUog9wI9yZaI1iIIVRZWa6gN/9s59XWvwxFbviJ/O+4NVf3DG6i8F/WWwM3GuEvTmrcyG9svfSX/xmyUfAhgLyQaWNKJogI1kGHVLX9HZCiaigjH8DR7edMcA/ml1mTm6AmcJM9JxmQyIPSSirVBo8JguHGDf+1Ewe1GYmAmSE0G6EOaqwcC0mSr76UqcrcaZYtyTj9dPtmdfon/i82JzTsHgm1mKYiBJUyG20fVlmy3puI4RQEmQTojZZeYwqMvMURYwQynE7g2qY2wKwIxGsK8Z2x62/+uWYOSMoKfiZ4thuthOV6JM1chV3IFKlKt4ybG4D7CZbvVssl/1Fu33v1ZkRdRtgVoyMKPw2dIVkyzrqElUhjQKOFFbJn8nv6arp64uM0dZ3DdjDR0MAhOw1gTfzNTV2LR++avgije6uS1eXznIVlqpYpwoxYmKOVAxBstWtmD2jcSpcpzZ4D+r5J70IudDN6H5OdEyGo4tIgPJvIJGUydNDckEGVhHxGpQm5eiPeQEuvqfqsvMURbVVKoDMwsGqfGNmSAOMRUX2V+9rb31JV522kuV/IPMlIEZd7CiDxS1zISdzLeylTg3E/SU/ZEt3ouvZHffrUj1pmsIzEKKCc6ZzDe6gUAGmfymWivUEru+2T+vLjNHWxCvGw2NLZp4iWJBM5BmysKi/cGb4qGtrVzZz5TddCVIleJkOU5WI7AzuSJNTwTZapCd9DKTUW661Vfy8lutT36G7HhINFDTsLHqGIKNqCEzIlOkU74BzjIxu8wcBnWZOdqCeN2QKKsbeEkjkm4zVVfuf8C8+q3x+lKcLbYzZTtV8XLlKFPiBQEzZT9bMrKlaGC2lZ4KEpX28GzUXwiTZf+Sq/VvflupLzR1E2HfEH1EHUFjDaYySlXw+nB33+bDoS4zR1san1TBDAKQmk5lw9GaDH33Z8b5V8XPHo5T+ThdspJle6BsZ/Le6p6bmYqbq4aZab47QG81yE22MsV2uhQWnmO967/QrocbvNxMoEmhwryazpbBxlCCsSZhCGa6zPzT6jJzlIU5MxgxxGjd1GTd1Oaa5MNfMk+5IHrWQJzIx6mSmSrbubKWHtch7k9W4sykn530E9W4ZzJeN+mBhRkstwfK7f8Ysy+8Cv3kJ01RlomHlUDSvBWdLfLtZwjhO2x2mTkc6jJz1KUqmox1cKhqrtFEDfUPv9cvf53LUzPHeQyTmbKyfM2Mlyo4YF7GT3SGNhh8gUAxXl+ITyi0M5NOturAP3tGg+pz8NVvo3v2qIRvDa0YtqjTGpMbGpLAPeN5nF1m/ml1mTna4sAo2JCYWfNNoTaHb/++ddqFwcCGOFEEZqJ01clM+TypeaI1OGlc+FLrBS/zZ87x0oV4/XC8bsLPTNtZvrFmOzHiDU5rp12kfe176oG5pmvxDBpCRIbrBhUYT3PuMnMY1GXmKItqErNUZGJk1ENT3rNDv/mzfuXsVnIKQhTAJkqUg1TVyVbaPWPx6Cy+6SP2h2+NL3+7MVTye7Jx35iZngGowmzBTY866ZJdOM246p3ol78WPCqrWFWpSo2GYYiaDsbn0L/e1dNQl5mjK4nqou4AM0ShQqChX99tv/Ltceakdk85zBaDdCECa9NX8pJFvgXAljOUn92p3fdQ+NnbWWWLnsxZ2REtMe2lJtu5gjWQ95KFqH/aKZ/NPnKLWtuvEkSoRYgr6LagG3J3/cxhUZeZoyvOjOZIxFQQVjWRfek258RL4r6NcU8pyBS8XLGdgkClEK0bDfKbnCtehR7ertZlct92dvHLtdK0kR6xErziWZwtuoNlPvXZUwz7qvZlr9HuuINITWK6mIVNzWkyQ/xvagZ09dTVZeZoS5eo09RNQVPZ4l7zug97yZPj3hmwLX467wyVomwp7i3E/zHobj2bfPAmNtcQTG+l1tRuvtU8+8VWciJMdKY70+UwNxlnSnH/RHTcsD9zuvOmd2uP7Ca6qZhRjTl1gJN2mTkc6jJztKUpyGo6VsOSjbt/6V36+vDfKu0UBDOVVqpgDhWDHI9q4uOGrBe/Qv3OXaZkSIa3KMn04R3em9/fzm2I+0fj/kKUnG6lJvmkZ2o86B8OspP+yS8xv/F9srAshq0lw67zP9S9X4dDXWaOtjQIZiRbF5VF45bPhs+5qP3vBSdT5rlkqbKZK7qZUpTmaZrs9e9W/rjHQo6q28sEIZnaX7w9Ov2SODUW9U4EqQ1hqhpBPJMcc9PDfrrYyj/Hf9V1+s/uliy2bBkiNYgKt7Y7bvZPq8vMURbVELUQU/EjDxmvfkurfHq8rqBnCz4wk5600yU7WfRyk8bs6epHPy8tqSaysaY3DCabbe33O7y3/1drYiroL7ipDUGq0krkw/4xOzPmZUvR0KZ25Vz7Q7egpb1NXVU1Q1OtLjOHQV1mjrKYjiyHLi0ZP/ihddqF/tCGMF00MxN+GqKUSXC3vP6SOTTLLn6N9IOfNjSDyFhlVHAsUQ2UOYH89Of2iy/2Jjb7iUme/pwsRr0FN1nwByej4Q1xz7R34avYd76FVg5gqmHmKd21AP+8uswcZWm6Enhs2077Q5/yiqc76bIzWAgyhTBZavdX48zGqK9qjJ5oXH+z/MDDK4EhElmiWNRNAQUCNuW5vfpHbvRPOy9elw+ypVaq3O4td7ZBnwyz1bin6E2fzq55i/bAH1VFbRp+d/3MYVCXmTXVwVJjvI4Zd4okXjITLvrqT/msvKQZsm9rP/+t/7K3hrlNVnJCH87HmXKU6Kz7z2yKEzPG5FnG136iLC7XQ62uy02CBGI0Nb/p+CJT9N/+3L/q9VGi4mfzQarQ6q9GidkwMeUnSmGq6KQq+oazra99S94/t2Q5IjX5SN3qmfCSGhROTCUGF09H6OzAvipeKg2kSayjzna5vKRgR3/5Z+dbwEH+WqvfnYq8ng5fhfrY0TrfnYs3ns5f55IJH9D7K/3lBFav1TNJXWbWTnC/GxptEiKpBCNdUYmoqKpOFQ0aK0a87VpNZKiS7HziS/HMOeEwBP0TWrbQTkyGYHAy+bivEI2eZL3kNY1tOyVEqKopMmkytmKbNdNo6HAcqb20pH32m/XnvdQeGLGTOTtTiBOzcWpTmJ2lmYLdV2hnN/kveiW5/XtNW1JRICNPIKxBRQkLWFU0bBk4tNS2LXpEMQSMmwjBswgtXmeioYumeVCGKWmmxAyQoBli54VCDUQMQgyKdYY0LlWjCkOI1nV1xVRrJmqYqGkiwUCSgWQdKRpSeSUpBcPnVJkgWcWKyLDA4KvxHB/+pynh/9Qw6BmHTZeZtRPcbEHjLUBGVAWnCFMRIdkAZrCKEFPgcjsNoqMHt5lvel8wuCkcLDrZvJUqxf2TQbZsD+bb6ybCzS8w3vWRWm1Z1k1D1lSBNBGrGXpT1xpUFZHUIsS+5yH03k+45Y12ZtTKFuPeKbBOUWZayxaD/mLcNx3kzyBve3fzT7+TsaMgV2qqDRPXLSQwhBUdY1dhgUxtEU6YIYkSmRGJdVotiO+PSzo72mqI6oQaIIEZTRAFX9GQO2YKYR0TkIGBoo7Aaj0umVuwg9YJrJYIYPA1pAxRwJ4Aog1MBcRkBCdjUWwRDMfUBEIaBIPNOeTCHmV1mVlDUaYwTe0UShZ0XdSAIioa8ExUBRlNoupOnRD8ndu1l1xl9pXDTClIl/xEOe6vhLmSM1yIe8r++a+i37q9gSTVsg2kqwIWwNSA/0N1MAh1VYK3/YYY/PS34bmXuGMb3GQ57q3E/eUwXXKyBb52oGc66J2lz71QuvFj8kpTAWNVVxqusRyYy5Yuy0TE2oplzLtsxUJAJRgMAgaDJw1wS9RUFUFRwEKpKiaIaljTeT1bQ4ATILpAdJEbTL0Dgw6upmRwoyQbliY7hujoosNEG0u2KtuKaknIEogtULvJnKbmCLrV0Mwa0WuqLiiGKlu64poqyKHIlJHW2SXhSRf26KrLzJoKgZim6HrN1BuGLuk69z0wUSRsQVyimY3Ginbd+/XZM41nj7VS1Tg1GScqcaLQyk54w8V44ET7rTdIu3fWGJZNU6OmKjNJBsOladSWEVtWlIalYdtwVlbCT3y2dcqFrf9TaOcmvYGCkR52M+P8aOtnghOq9sBm66xLte/dhWsrcsupaUadmiKzMTV1qgEmDVNRNMXAiNsIDoamMZ3pBjEMbBiqrsvcZhIBOn6MmcYfTGPwoJRi6AWIKoPdo0qTKXVNaehI1U2s21izMbMwM+EPgQsHBoRgHUSRQRDYIl2kYLKsumbC+TSIIai6BOeh8jIJcAQV8ONR06EX9miqy8yaCtx6FZwQQ68ZrKnzbhg6dUGlIngeREOiLN33R/slV7hD086zx6LUdJyeiZPVODkRJUfDgXK09SXa575Zx0qNgrOkUWaCFyQhTVKZQW1oguDSLGh0yYaWh6w/P+i94QP+wKneYFUbGsPDQ95gnqfVrJuM+qp8bGB8q/eyN7Of/lxycY1oDdmUJEs1XABDo7huKE2DAN7gRMFJivAMNoQC5GAhO4IX4FZ1AnQVUfhqvDQnYgQzQhgmFAIuhXtxuAliSCBIJBgEdhU8vU5lAjAaBCRCvIQQF4RPhNQpqTFa58EMtCiqEoKgWyHgJaoi9xUPvapHWV1m1lTgz8iMCRa0PAoNjpcdVw0BQSjCVM9UH92HP/v1YMPJUe9YtK7QymyIsxvj9GQrPdbuHY4HZvyXvxX98t6VIGggwoMiZkBUI4Cjr1JKTMZslVmLhO6lZL9OIfZm3/mJdv6rzZEZMjCCJkbC8Uo7XWmvL8Ex+aLoRCEa3GK+64Pq/h2SSkTJEhuWYviqDjEJqml42TSWLXdJsxepuYCNBaQvIm0JsRU4YTAIgCucPzMVMAiKVlf0pgoAmwq2VepgxoU0R9FsSbOAtDpSakiqYblO1YaGGhqua6SmkRWGlyhapOoSUZpEaRC5TuQGlUWqqhQxhgFgSpECb2JhBQsi+fvbhBwVdZlZW6mkqbG6rUHHCS1CQTpVLJmYNUtvxhq6+7fmK94egg/WOxInpvzsxii7Ic5UvfRI1DMeT5xmffJL8p4DDbcFoQ/8ukBZA9w8ypZV0lChZVkGtHhi1bC+QLQmtRoH9je/fZs5fbqbyvuDE/HEbJirWr3c2kTZgjswGvaPhc99sX/jrX5dZGYo40CTXUnWllWsQigj27Lqq7SlslAhvow9GTkysjkV2FKxqZCON8WsJT9ebMXLYVwL43oQN/xY8GIR5HbkxE23XYvCWjuoRUE9ChqtsBmETT9oukHTCZqW1zQ9wXAkRhVGVA1sFQVrpfMBb8QUhBEGV7Bp63WIiVjXN/tfIz7JgFhdZ3ULYmpCFKoqGlMdVbMbFmuwFfr5rwSbXxykhuO+sTi9wc7OepmpdqbopMfCwQ3tM15GfvVbuSkrmg9+PVZZDUM/DQfU6owtIQS3StdcA9kYAmts1anTIKq0+8/6tW9rTZ/Jy9bwBZ4VPVmIM+Uwlzdzw1Zm0B+abj3nMvdbP6YHlmQd4nKzSQwIb7BqUsnGgJDhiZYnma6iOxCNgEOoUV3DlOd4ihJqNNSVmrK0oswvqfsX1EcPKLv2Ktv2KA/uUv60Q7l/m3r/NvTHbegPD1PQH7eR+7fjB3agh3ap2x9Rd+9T982jhRW80iB1gQgykhQED0ZVQ1MNCGCg8TE+SqHowKpMXUlzebH2J13bo6kuM2snHhgQHZp4w+xsmSlT6DwJdpHhyEwVd95vvPld7dQGr38oThbj9CYrM2PzobNxJzXhbTzHff0HxbkD0GI02XIUG2LqZWCG7zBjyKa5QFCdwMOwFctU+Z4ZDc2RDYOJK/QnP2pf/oZ43ZZ4XdXvL5rZYjhYCbJ5Oz2ijQy7Jwy1jp/UL38DvuNOBUvgLNUdU/IcTHTGx5ghyleaWBIVQRXqtLZsLCxY+/baO3dCvGTcc59292/YXT/1vvFN/4tf9j77BeeTt1of/YRxw0f1931If/cNxvUfMK//gHX9B5x3fqD1phtab/pQ8JYPO+/4iPmem/UP3ap94gvaF76u3/Y94wc/su78qfXL3+j3PUQe2q08sldYWmwIDXDnGpgISJdUW1E8RfZBMi+X81cX9iiry8zaqcOM2YmhKaEQ3FAiawK1VQOsTI1+8cvOuZe11+fd9Hg7BXH/Ri8z7aTzXmo4TJWsi65Wv/nDZRX8JsPi3okhYb3GtCaGAxmaaS3reAXiYwx/hlJFU5jV9H0K8cSSgNSa/cVvxie/rJXYFPbw8Wt3bKqVq8b9pdYwGJ9y3DdpjZ5ivO192rY/1vS6HDDd0WWlpghzdHm388B9zq9/Zf3ox8ZXv6nf/Bn93R82X/8u68o32S9+jfO8K+3TLnW2nh9tOK09dVK7emJU3NQan22NTEVD1fZgNV7V0GQ8PB0Pb4yHN0Ujm/yRTc7oZnPiRKNwklE51Zg53dz0POvE5zvPuSB48X/aL30HueY94ntvEr7wNemnP8c7d9B6nWhMtO0l25kzbaFrZ/43SZOIBW1dIljSMYHmLrNFZkiabu/db7/2en/ytKh31B2ohumZuG9DKzPtZyb81FCcmtTf/N7l3TsPcHdfd2SqKFqTmU3TlMDbg6iCaDUdLRu4qVOkEhmzhqbVTb47J1M6M/IP/Jnc+El75twoORX35a3Bcis7HSdmo+xklK3w8Kan7J3yYvOdH9R/dKf509+Y3/kp/dSX2U2fMD94g/+6t/kve7178audc6+wT7vA3nyON3W6Xzw5GNscDs4G2ckgVQ5TxVay0EoUWv35qG8Coq+oZyxaPxr1cLVAvaNhH4RPowGob8zvG/f6J/z+QpAoBolSkCwHyUqQmQyGNwX5k/zqad6Wc5yzLrYvvtp8/fXajZ+i37wd3fsHZf8+WRb+u61Cj4q6zKylNBlbEtJEjBsmgsaMFbbALElSvd/9MTz1kjAzGabG/MHZMDnbXj8V56ai9EQrNRbnT6O3fOGAqe6nmko0B7Omqjd0WwIfTYB/IF3GDQ3XLNK0uT/V1OiyTmqq3GSaZLmYWnW1Ob/9Hu2Vb4hKz43XF5xkscV3R9sUJYHPUpQpxuuhrVfdiefGl701vOId1rnXWBsucMqne2Ob3UTFXV9wj5/wnj0ePHs8PG48OmGs3TPW7h9tJ0baiaF2/7DPt/SYDNJTYXaqlZ2KsvBiktfCzVY7e7KXrWzRyY672TEvOw5uYZgr8gWngGuGrwvq1J4uRwDz+kywLhuvG4qfPRL/+2j87+Nu76RRfK529hXGW9/rfvmr/u9/S/cfUERRYlTQdIkaKuapcZ2tQtlqdgK0107a2yEXf83UZWYtBWGz0WT6iknrptBgkog1Q4v1B/frH/5Ee2K21Q9Nqhr3TccnlGJol4P5uG88Tm/wrnqH/Jt75iN7RWGqqjNmN4nTpK5CXYxshkwGjYYxSScCmBoT1S21bmJJsVXZU4kvhtF829zHltBP73Sueks7e3J8wmTcX/Fz5bg/H6cL8UApThf5kul1xTg128pusLMzRmbSyVThM+bwsJ0d9PuHI/hwP3h0M+2+qSA56WUqQa4YJ8fj3lHe6JPVmE/CVvkmH+lyK10OIBjLFP1s0csVvWzBT00EqYkwlY8yBaC0lSm10qVWiidft5LlMFlyUyUpmzf4SqGZ+ISpeN1U1D8djGwJsxuAZzBE7vRJzqWXeLd8kj14b8NS9nuuyCJbaOuKpyuGptAag0ZoatjpYHPIxV8zdZlZO61ODjYJq2tEMJWGhgSkWUqgf+/X7NKrWzlwbEbd3JQ9MOOny1FyPMqO8yWZk88jn/pi85E9y54jEFNGcD+0Tn4X3+hPZIbcyeYi1CTwgumypgs6OGZ63bMlwlBNVJeX64/uXLn3bvOLX2td+Lo4sTU+YTpOVoyhYpQshKmCkymYGTA+hbCv0O4ttnoLXl/e7ZsI+wttcLd6x4JUPhiotLNTMXftJv3UpJ2bMoemvFwlShUBvCBV8dPVx1SBf4LCjlrp6qoCeD9dCTta/QC4ZGESPlNtdRSmq9YA8Aa9BvwVPp/r5mbczBTf/BBgXl9og3mEYOnMC833/Jf8y1/Umo0VzaxRV1YMCl8baQSaLF1N3unamX8JQQtuQnNHWEKqZDJRNyCiZ3NN7UOf1abO8NMTYWLCy03iwowxXg1zhahvJBjdaJ7/cuHuXzTrKxKzUGfFSwMpPGNSo8DeikbqOhV5aovNKNgci8qGKjChqa7gBXH/w+zuu81vfp997NPkre+LrnhjPPPC+PjpuHc6zFbxSBksiZEso2RBSRVoruIMToWD4FlVW8lSx6rk455i/H8n456N4dCJrUHw5SYjICpTtIcq9sgknK2bqdrpipEtg8xM2cqUnXTFS1d8ACZZjRKToHY/F3iDLXDeUlN+ouonKn6iHCQ4M0BLlJ4ExZnJeADsWDE+YSIGxoanjOFJs2fc7ynEqal4ZDPfbff4Qvyssjv5fPqat7O7fr64vH+noy4TrGCmEcPFJrTdA9AZHclcgS4zayeJag2mSxhjVVXBwBiBKmn0l7+zrnyDv77oJ/It6EczFXuo7GZ57x7//wb82bO1938YrUDwr1uSY5kt0TTnmawQgjFVMZEomCyt6RmCb0mmpkoy3bOg37Nb//7d5H03WK+8tn3ulfGmC9oTZ7q5re2Rk1upWfhbrYEpbbQij5Wi3KYotcHtn7JTk9Cph8MbosHpOFPlZTogmk9MtPpLcc/J8fqT495NfmbKGSh6A+NxcjROTsSZMm/WQ1NsoOrmJoLcWJAdCzJjYWaslR5rJcfCxFjYNxb2gvgwAK+duw40Fq8bba8fjfogHBqN4JPZ8XBgPBgY9wfH3ZGilRs3kiNWdtwcLOhDBZoec5J5nlqang0Tkw4YnGeXWusrdHizdvbl+EtflpQDUsCQC12GxZBWZ/iABZ3GEWyKXWbWTsBMU4MLhQlAQxyF+up8k33kE8FpL4hPGA36C+DWt1Nld6DkZgot6Fz/repf+Fr5zh8rWIZIF69ohuqoDKJ/LOsGSNTBSUOCVBfn9sr3349/8BN2y1fMd9zkvPo9zkuu1U8+262cFA9vipMQHpS848bBU3LTZTtdCIeq7kDRTE1EqZl2Yibqn+QGJD3Vyky2EqW4v8C3GUyVg3TJyZTD9JZW3wZopkECLMy4mxsJ+nPxuoH4+BFuhXoqrZ5KlMy300BRoZ0r8cHl4an2yEw0tqE1vrE1sSmc2AyKJ7bEY5vjkY3todkYyByYinNVPtLNvbvx9vqRaN1wtD7v9xWcRCHg1T8KUargZvmu7hH/2GSQnrSzVXARwWl0142C89a+7GrvO99R1WXRZDI2GNgZXatZRGSHXvw1VJeZtRMwI8CF0gimSMW+1DTkex/WL7oyLszG0CUnyq1EpZ0secBMqhj2gq9ypv+uj9UX90iaVkf6ch2rTUoQQYxPlwuC1FxZFnbvln99N/7SN/R33GBfeLW38Tx/cIvfU/aOH7P7x7zEeNQ3EScKce+43zvqD5ScoZIzWORBf/9EfDx09qVWf7ndDy2yArhCW/TXj0VgEICZzKSfmzQHKk62YqWLZnLCT+X9XNEZLtHRoj5U9iG8yW2Jh06N82e0ps8KN53dOvGc6JQXtU5/SevsS1sveGl4wSuCi1/tXfoa9/JrnCuusV96jXX5a+yLX+2++BX+C17WOvuy+PSL45NeHG84Ny6f3h47JRo8MU5vjXMnRUNb+YrU/qm4B06sHObKcOZhthzkKh54a4VZb7AU9w5zaMdPji+7Vr3/nrrYaGDdQI6mWaoJDbcbz/xLSKKsqcMzAIOIFcm7l4Vbv2FWoKGMxEP5IMN3XIr68n627K0rRifMxFtf4X/pOw1NwJbd9P35lrtskjpuCsv78W9+z77yPf3dt5gXvdndcllr5Kw4uzXOzsbZCrhGTjJnJ7LtZKGdKkXpEu/O4RmCk0yJb++czvOuva8Qr8/HiXwI8X0GQvyiP1Dwsnk/NQEuIiAUZ6ajzEwA4Xv/cDCUdysbtOqJdOOZ+hkXBVe+IXjDe5zrP4Q/+BHls5+Wv3+b/KOfKHf+XPnZL9Vf/Vb93b3qH/+kPPiwvGOnvHuP+Oijwr69jf37avv3rex9tLZnd2P7DvHPDyt/eAD/7g/gmrKf/Ip89yfq129XP/MN4/qP2Fe/03nJNc4pFwf5M6LeDfGzil5vXhssAKhuegzMkZHhNXjj9ES7UG5lSu7IKeINH68/tF20XbtmWJLFcyGO5Lxnl5m1E1+naTARHDNZMSyf/Oxe5eVvdsHx6BtoD+b9odkgVeGzgX3cyASFM6L3fAQ98PtFr4llgc0vkYd2oh//Sr316/QdHw6uuDY85wp/6wudwqlOZtbvKUXrwJgAAxA9j0cZiBMg5ICwpOInS0GOL/MMgZN0GRAKwIgBTjyvucy33+grBKm8nZkA+Zl8lIUgpxJmJyFYbyem477JVu9QOFAMZp7jXHG1/uGbyQ9+yH79e+23D2i/fwj/eYf46CON5blmvS40BKEpCZIiKlhElGdbd1bCNDSrzmULzOFpo1hvqKwpU1EikoglQZHqkrDcaCysNPYekP/8AP7tb/FP7pK/dpt6w8f0V701Pu3yuHhGOz3tJQthJh/niiFPkijH6QIdg8hn3EvMaOe+Gn37RzLFqEGwbBHtyNbT6TKzdgJmwO3mKxzrkiOpxi1fYdNntcAr6x10MxPe2IYQnPX1ECJDw93onnEh/vE3lw/cN7f8kPq733hf+m78zk8Gl77Nm73Y79ka/8dI/OyBqGcYul5rAMLlvJsthND7dsDgE4XZyRhilf6q01+CGMDJVVwemVT8VNVOVFh/kWaqVm42ho48tTEY3qANVk3ovxNgiyrtgUlvYNIBU9M3Fa+favWNtVLluHJG/Kb32b/6lWLItchpuoHKAs1oEyOSTF+wnI5cEWR6kuFJuisxV6KuiB0RObLqENXDiqMqlixbkmpK2BKZIxhO03KbtttwnLprC4EhRYbU0lZMcWX5Ueme37Zu/Wp8xdvi8nlx30wM12diGr5XnJwK0yUpPcyS41Fyuj14hvWum+QDjyyrSpPaiPhHdA/3LjNrKLig4Gpjpi4I5q/vs1/9Zg+aeKYQJibM/kIAQXOuEvWP+YnxYGKT//wLySc/LN30YeF1b1XPfqlZeF6rd3N7ANz9LdDp+tlRPzMUpIZayeEgOeKlxqxM3sgWjWzZzky64OZlp2MIwYenwNNrDU62cpOtdLXdPxn3TEfrZuzjpsy+Tfbwc8PZi72zXm6c/wp0+vla4aRgfTleV2onK/ZgVc9CZD/Jgwro1OEX+zfFw8+zLnyj+LlvrCwfaDiG4raI4GhiQHGLL3DQeYELUSOSxteTqQzCNkoIZbySGmWEdsppMIVPO2IZ7AFB8KxQ+CTlS2Q0trqImum6ppvwrkI0PhJoKOb9f2jdeEt88sWAd/TvYxHfImEaOI/hO4LN6SvHx005L3x589u3LTtyw/dkxTmieZxdZtZQtFODhRjS3gb6r89Yp54XrctAjNFKTZr9k2Gm0koXwuQYAOCPTvsbnmuee6F9you84une6Fa/rxz+xxAP3NP5diYfdnx6cLGifq5WAjyWcgBmhE8pTnZUcfleGqOt9cM8kkmV2wPTwfjWYMPzgzMvM17yau2ad9D33yR+5mvS9+/AP/kh/dSt5iWvCYdPjY+fbPdVzKEqGSoFGb6dOhiuVqYMfqPfV/XGn+OefaX1kU/R3/9OkeuiziuyK6rNc1V43go0AK7VkksqX6rJyeFLxgAVRiWNC15w8Qrrq62NKnBleEUORlWEMPzUVIiLSIi1luz6EhbVHQ8YN3/Kff5Lw/5ZIN9LVq3MVJzbGKenePrCs8bCLc83PnCDJB0QbFNSXWi1h178tdPBb9Fl5q/Ei3TBs9QpldLJaOJ5XwfLdnGn6/GSX/yfq5+Hq9bxEDq/1fkYfBiajiIT8Y+7mxe81hgBzycZZ6BFbrBTG1r9RT4fkhoPkuMQfvi5KW9dKf73QvwfRd6hgh+fHoozw3F2qJUZ5kPDielWYqrVP9lOTMZgELgggCm3E0UI4r1UQcuM2qnRKFWIRzfF06e3TjvfvOgVxluuN2/5NP7B9/Gf71FWHp1DtcUQizGhS3vMz3zZP+eqeOC57eQGO1elw0U3l4+TE6103hrM05EJPTvWmWYpxTPPD9/2bnz3XXV1cYWpdRXuu6kSWyUWz/5CusJ36gScOouftVWtllzixc1kTZM1Xdb4vlEi0wW+QwGvHw2/QiRVUNVFpjXMUMEt2vSRYDVsc7GF6/MP4Q/d7M6+MM7Our1F1lsMMrNtYKYvH58wHJe2Rq/6T/bIn8F8CcjpMnOUBQAQ1ZCRUSd6nVeN0TViWKoGr1SVwJVqGHrdNhqmJmicDaTqWDUJAsfaVqglEkNATFR5wRTFdfGOPfjjnxc3nmllS3Em76dLbnbay20Ej4gPCoN6Jtv9M0F61snwzJEgXY0y1ShV5JFPctRLjdiZMTtbcTJVlyekVPkUZLoSQ1jfN+atHzR6slpfTsuNa9NnmM+73LvyzeH7P+l99fvmr+8h23ehhUUkiKqCVEQwgqaqEhliAHXJI7XF/cr3fuJc9LZw/Nzw+CkvXfRzo0FuwEwNuunRMJsPBgp+ZgxcQT6dUjzJf+GV7GOfVe7/Mzhm8569CAGJDk6RpciGIusSBiQMydRlkyk6+GCqAt0FU2UNKQaWDSLpRASBL8cINB6VmyMGDlwD4TmiiJYBqNTATxPBz6N1E++LlJWf/Zxd9pYgN+P1TjjJMq9qkKhGcN3WV+LcZv3cK8i2+2QkCurBHuoIqcvM3xIvWISIrlKet9/UtbrBq/tJ4H5gvtG+1CkrAXcd1CkDyfPKGhgAM+vMbOimoJuibiqaZgBP3/8xu+waI11trR+FkD3MgVc2A117nJhqp8DjGgNseGJVuhRkQeUQDFG6HKVAPHeL5z5DfJ+BfxbDRMHvy/u9haC3HCam/eET3ekznbMvcq94tfPmd6Cbb1G/8U1018/Qnx+U5+b4AJXOGpYp2I5iOkizeMEXFasIg48k2QbPs56bo9/+kX31u1uV89rrq2HvGEDSToD5qsZwSqnRMD3S4mdYjPqnvIGTzedepr/lPfQ7327u3i00GgrGyDBVw1aYJWMDrI2KuEEGyyww1tSMpsZz5GRe64z/VEGajDQJa9DUhE5hJ6ZZksZqGtbgslO2whhBBhapKKnLAUUPPuy951PB6OawNx+mwdJWg2TZS5XivmKU2+ScdTn94+9kRRDgNkHb/as7uJbqMvM3xOuSMcIrEelI02oG3WfhRy28aICnoRNiIF4UE3xxTHnFL15edZmROZBOl6CZggePkNqU6IGF4Hf3WO/8IJs6vf3s0fhZAzxteWA6Tm+Ie2fjxLSdKaKBES873MqMtNMj7dQozxpO5tvJUpvnC0+307NxBpz4zn60/QVoxxDAWAOb9InnGhsvsF74Ouf1Hwo+9a3ox78NHtolCfN1rd6w5JrLll1jwTEXTGNJ1xvgF0FYDieLSA08K5PKlgFfzMS8RJOqLLOf/MR7zXXx6OmtPp4bFvefHPdvavcVw76hNhgZMI+52bBvxjmuavdUvfym4LwX25/4gvmzu41duyjEHo4muZbMDATWRIBnS8R2jbkreljTwgYJRARhuqvKzmMlzswmdC6a2dRNZpjI1CWdOrw4Da0jhqiHRUOtqbKOzd2Ptm+9LcifFPUW48xUCJY2U7LSEyQ56g5tjJ93pfabuxVJEE0X7suhN3Ht1GXmyYIIlfE4FdWpUkOyoCqqAt0zX7+xYpkrptlkJjhgNabzdLJOVNPQ2bJDlwLS1AW8uNf4+d32Ld9wX3eD85zLtcKpdKASjYD1GPV7BsF6+OlpOz1jZapethQOFJ3BsgsvUuBrTfApF1Afn0UBxz3snfDXj/onjMT/MR73T8el01vPv8K79jrrE5/TfvRT8qeH0IElVFd5PUzZQLqJTZuaDtU9TF2EbEUxZL6wHr4UkRmWGKpjddmgy7beQEQRVCwo0K0TYUH/w+/c93zEOeUSs2cDHZjSUiVrfcFPVaOBmXhgpt1bCHsmvMSEPwDGZyJOlOKJ57dfeI37/pvpL38qLu2uOVIjNCTfR1ZLZS0BBQ3ZVRRbVm3gR2BOw7AbFt+aSrQN2dSQTjDQgVU4OUlRl7EqErZC9CVimmroqKHO3HpbX9n1oPChT5hjW9s9vHSOmyna2QkzOyYMjBgjG+MzrzR+9RtVkkUnkBhER391E9dQXWaeLD6vouGGhuqa2qRY5uUveGE/qhoqNiWQCnGBISJLYq5iuophSHJT3L9Huee32je/5dzw0eDl/xmecXFQPiNIbXBSVXuwFI6Xwuxo0DsUQ7iSm7Vz0zQ14WYm4oESmA43O+UMzjhDMx7PrarwZN4TgJlyOLLBm9xqPef5xqXXGm96v/6RW9l3vo9/9zv1kZ1KbUlVFER1lfFaEyJxeBlYbCJsU+Ro0PnLIJsqJi8Vze8uajLEV25RWsekQSEC0ZHKMMK80Iu6TO+/1/jIZ63zXk0K0/pAwc1Ntgc2tsHCZCpecqyVBMdyPE6X2omK11PlK+RGTm2dfIHz8jewD31cuf0O8eE/i7UVvs2B6SE9wMQjSIdDIwx9EOWppYyjLTBFpLJMFZUogC3BBC6vgCiiVo1ac8RSkcc0n9q2ZDTQHXcYl77eHgCjx5N9nPS4kxtzB8dobtwc2+Kd8yrz3j8iiDDtsMvMUZZA2aJBlg0IWHmdZUwMgiCwNQ0RTAwE/twJkRX4sUklcNcIWVimv7+Pfenr9n++Kzj7snbhFD6WdfxgcFy21VdsZSvhcCUczEc8MBiPs1Px4Iw/MKklRn14J1uIest+csoe2qhPbNFHt1gDm730lmDktHD2Bd75r7CvfYt208fEX/5e2P2o0Kg1LFz39bpvCqYOIBMMoRePEBqI1RTSkIkAcTecm2ppqq0DPJiXDuRLGgkWCIQfEGFRuYkk3VZsHxkuboAJJZLDJFslu3cZX/ymcd6L3NmtUenEeGBDO11x0+Pm4GiUG4uThbh3spXcxLInuukyxBitE0pR34aweq7z4mvY+29Wv/8j6eGH1eVlpqgGAb8VqJB5cT+iYKSoqizLkiiLTUVqgusK58OoqBsKMzA2TOI2qbOPmUuG3YSvRgS684/B9TfE+bP81GzUz1MBvNSolxsNByeiZMEtnKZd9kZj+07EDMEIJD4Kd+h9XCt1mXmyRKatOOBtGxjuJ1/qZeiyhVXwNAxB1aBLUx0H+zbCAn34YfMbdwRv+HD7rNfEE+e2U1uCvqrbO+71DwepoSA7Yg6UzUzJ7Z9o90KbK8a5yThb4UWZef2kSszLmefbvcOt44d4wHNcKcqd5G28QL/szeiDt8rfv0v+8zZ1YRnMyQox6tRSsEVVoNfQFINSA5uW4lp1R1vQ0QEqN0zatFjDZA1Da+o6X66jWQqIz37wxcAIawx+CxhTmcQs1fSJGWAwTbzWK4VYvKmTprhi3P1L/63viSbPiI4f9Poy5uiwPTIRpctxz3Sc3OhkNuLctDFcMgcLVrboJSt8PCNzcjx6VnDiJfqlb0QfvkX98R3y7j8tNQ8s43oTjm1r1HWYFxAnUKxANMKmETWMdt1oLTG9zndg18GMi8yYC6yF2GuQuvqHu9kNN9gnnxP823CQ4ItweFJcZqKVGw/TE/G/5aON52vvvZksLaiGLTP/iNZz6jLzZIFvXcfwwjSI4yrgg5tgcZpEq5ta3aKi1JAefUS5+7f487fSd7xDu+jlzuzZrcGtnc2WJ6MkX7foARXpUitdbmdnovRUmCjzzP9UqZ2pgPzevHcC+DnQBPlAUFjYGm5+XvC8i/wrX+e86wb9c1/Bd/1CfnC7uFiTFMYbhBGJFPxAU9FsxCyEAebVuXfAQIfwt65pNcCBT7/zEV6Rqk2GG4w2tc7wFO+DTURMgk0mQ/SlL1nmoq43sK5AFIQtRHk9ThmwhIANjtNUtLvvYzd+UnvJFcbsVis34faNtPg86WQ8MOvmpvVsxRkoWdm8kZ6wk/mIF2XnCQecqLFTtVPPp5ddhd76zsbNtwpf/oby/R/Su3+nPbhN23eALNfUhiRJRFLBM7REXs1QbVBZIZLebND5eWXXTvWee9EXv8Ze/w7rtBdGg1Pxs4faqWkvVXX4Ap5ClJmw+yfi/1OOXnSNcfudgljn45PE6ebOHGVJmDV4ZqVpaIHFPIoMUUYrVK6xpiDMqff+Vv3Ml9DVbzVOfI42XiLpEdY7aCfGolwlHt0Qj22KRjYHuU1+emOY3AjNKE5BNwyByqSZLpkpuOvVoLfsriu3Jk5j1TPEE891rniDe/2Nxhe/TO75lbq0SzYaskcV2+DL1JAty44kWkhQVAQOFWs6Orgu4D1C1EwaADfcAwMifqK7NlINWSSyoCiiiOQGQQ0GcQtfKyrxKUgLY77QpKEZBwJ7v8GWZSTWER8FNhzV8iBUE2UmyBpmkUKd5vKK+IMf4mvfYc6c6SXLnJlMIc6VWrmyny21U+UgUbD7xuzkeADvD1T4lFFvITx+zDluzF5fsDLTbOZ57PSL9AtfZV77TvODN+mf+xL7zvfIXT/Dv/k9+cOf2AMP04d2yNu3Kdv/TB78g/W733jf/UHro59tXXWdd8ql1uBJbl+Rl0pMTUDnYqfKenIszpTAK2N9Jb/vpOBNHzH3PLKMpDoF79SUu2ubj7KYLtvgXusrgrokyzUdCw5WxAV89y+1Gz/unv+qqHpOnNoc83yWETM1qCcH7ORwC2IVuM29ZXD6veSsObBFHz7R5gvfJ+PMdDszDfbH4Skts62Rk7yZ85wr30Jv+rT8k5/qDz3CDiyp9bqA5KaGRIMojBf5RiqWERIormt4xVRXDHVFU2sMNcHG6Bo2LKo7TPMo9SgE3ITXce2YF0CF13ASDE3QtSZjDcK3doGYRyJGQ7eamilSXYHu2bRky2owDT4gIgpWyMCWpViGoJuSY6oBVixpx17xtu+ZL31dO39S/P/m4v8vG/dNtIdn4n5uVONEyUsX3GwhGCi0+V5R+bh3Iu6ZAHja/UU7nbdyRXuw6ozOuIUtbvVUd8OZ7skv8M+4KDjvpeEFV/mXvNa8/A36i16tP/cSe+v58eQ58cgZcf9JcYKX0dBHqtbAeJAcjhMVN1nUIPZLFsNEhQ6faD7vVfpXf4CQvIzVOibw1Q69g2uqLjN/Q1Tjm6joOt9LqFYXHt6p/OgX2o2fcV/65taWF8fDJ7YT5QgaRz/fKKbdX4L2ESX4MsNWMg+9b5AohtAxJyej1GSQKrnZkjNQCTKVqL8U9ZfNsU36RVfqN3+S/OIXeNsuvNBQIZZgEIFodUNr6Jqg8awclYDfxRTMZ7jhxijcxQKLQRuUwgdkw1BMQ+EBNH+fb76ngYdm1ZjZ6KSlKNREzETglWEmINIEUQpBzoptS9SEmMxSDQ2wsU1eRxMjUQVINczvvVZnBE6AYAsTW1aoOLdI77rbft/N4XlXtgongzltJ/N8Jr4X4vJqlIavVvQzE2Fqop3qLNSBIC1ZihKldi9EceOt3vGgb9zvz3tJ+FglHJiKhmbbwxvawxvBIPtjJ/sjJwYDs16m7Cf42HqrD353sp2cDPqKAZjlLIR8PALUcxNxXz5ITZsbXuD912fwAw/XrE4SE78+R3aPmn89ZjqpX3ybJJ5WzPO+qIwp34eO/4h/QKS8FfJZMGhS9OAEy2OJhnAJ+JZ3skyQKNOlJXrP/ezmL+sXvtEbfX77+A0QfcbrwRsZc4byAfhdfZvjvk18Lz6+VLhk5/LmQN4eyIfpfNwzHh8PQUvRHijgobyTK8Y9hbinKm85U7jlY4qwh+cHWy5THHC0oJmCkwUCV2p1ghzuhEItntMFbRdZZmfgGNxFkfIMA9E0RIhVCG4ipUakmibXDVLXwDZ6At/JzCG8pJPFkIEg3FdJEz6p0Yap12xbIYbZZJ6oGRgCbwZGrEmQjLEK5oiQRQ0/GpB5G8GRlaYkq1Q2HWT7ZN8S/d6d7Np3Gme8yM5v8JJTYT+0bD6cxWvZgIeWGg8zhTBXDnJVL1sNeAJyle8exRkoBSnw6CpBrtLK8sJOPGds3Vh83Eh03BjPKM0Vg9yomR0iuSEyBles0gZz/X/AZFXjoQ2dclBFGw7eX/KLpzuXvtH/3R9kqTlv64SZKnQ3GkD+lwaw5voXYwYpDKu8v8Q6xAPAAwXvXpYVrCDG96PEEBYsU7RiGILlq3ooa67AwGNBEpEJT4/SFCsUvVhfRvrP72P/9Sn9RS/1KifzvjNVgDZh5QrG6oL17GQrtamd2hRnZ+3RqjtU8NOjVnrEzUz4A2V9pBKmS50q49NOqqAnRuKRatxTbic2o9dfL/zhnmZsKTLFgoYV7ovzGaFOuic3GpzhDvCceQhtOxmifINY/nr1p6uc88/DbeN3DgS/2NlvrJMqCrdwte9YvSyPH1nk8+VwNIbwapJL5/3Hrh68gHbQIETotAkRrJOKG4ioumkw0xEQfviR5Tt/PX/T58JTLmwPbfH6St7xg+H6gRg8qIGx1uC4k5swMkWTL08A5w3cVIhJimCHW7x2JpBTAgvME8Y4bODaAVTco2un82CpnPS4lRp3koUATHdPJV43Ffdt5GkQI+DxDrX+fSQaOd195bvo938uiULDNuomWFHS0JQlSxG7NTSenqBN1DWtwfiXga+kgA+jazKfY6GY8CR1xK0N/Ijn4aqKjhgfihWZIahE1hiyDaJRNL+o/vpe+6bPWle9VT/1QmvwxADufc9YnB4Nc6NebsxPg4s1HffxyD7OTEbghoHPkMgH6WI0UGmlS2ECWkAxTBXbiSK4Lna6YIAvDtSlN7Y2X4Bv+7a0NCf6LpwAlnWMjSMavz4VIW5vwevj44cI1xToUHgZHNNwmMKEhcbKAzvwbd/R3vth8/Jr/Y3nxcNbeelA7p1OeOlxLwUMwJettjqlzMI0aCrkmS9TfDl3ejJITob91bCv2uqrgN8VJcphquRlitATBbx6RpEvzE6WWsBYsuTDNewZBcNlbniefs117Ds/JovLEIaJVmcOV8ESRoJ2ZPd1+ldiRmDaAVefN1kNY1HBfGkHOP0OhLU8XRLOlu97qhk6cXnV8bqiYr6hEu+eJfDTLFXXyMJe9p3vGNe80ZvZ6mVKzvqSe0LV7+vc7Gy+xdcPj8Zwp3s2xD2bwKNoZ8ZD8MH+70S8fioc3BIPbQFHIlo/Fvfmwel30+C/QRxcMAaK8bPzcfFM77XvxHseghsNjRJRG1OLhxzcnhz6XY6iwArxhQ/ADGUNTGoq+GkETpgyQ6emzreJZQseqy3OkR//Orj+U/H5b4xnLojHntMa3BDmKrxOZ4KXSvPSFSsz6WSnvNx0MDATDsy2cjNBtjNw3F+2+4p2bzHonwqS03z9D4Q68LsDZV7uAy4sN+ajRmZYS48GvVPGyRfI73xv89c/levzxLMp+AjUEWVdlhlWGOMlrA/9FmuofyVmRKYt27qo8722wdmH2LqhsWVLW4ZnTJZVtMTgn6YKXbtpNjxDZNBLEYheGp4vLdToHb/yXve+1lkXx5XNcWKo42/kvVzeShcsvtf+VAROfGLSS1X8oelgbMrJZKy+rNUDscpJbvVcf+OL+NpGiIzBX89WYgj90xD4jjnZvJMF77wUvPAq8oPbwfGRTV1AGiKWyiyI3Z9pzPBNk/j0FLfbcHp80Qv4aZhKPCVV05nJNHueGIvUFKiOGwL78zb9Oz803vNR65LXOpvO9YY2+esL/rOGg76xoH886BsNe0ZaPSNRH/Q4Y3FmvD0wEQ3lW8OFcKjoZSaDzHQrN83TI/ji6kK8fjRcN+yuHzFS42yoqE+f3H75de5nblMf+GOD1EQL3AWdNJnUZDVFq/OpKtOSDPVIDp39KzEDBhoccYqZq+iWxFTEgJYlQ2+AM8a3AQKojIZtSToYHMy3ojdNiKSlpqD8/n520xeci65tTT0vGtrAl23xikdjQXbUHQR/DGL6cpSYaiVmw9QM2B8X4pZUzk+NetWTrBdeoV7/fu2t7/MufI2X29wGB50PH4GjUnKT4HJMBImJCKLh8bOM99/UXNiFIGDVzQZwi/jwQ5OPkh36RY6uwM4oiEqIx0id/DFTMUwJeiHoXyC2wYwPrykawgbVbaKbkqLUF+dXHn5Q+Pkv8Fdus97/Me+11wUXvDp87rnBltO86ZPc/Kw7WPEgIOwfj/rG2n2j7f7RqH807B+1+ybcvkIIYc/6Ynx8KT6+wkt+jpzibX6h+5KrnNe9zf7Qx7U7f4f37FdUSbQ0lTLaJOB/K4pe18xljaf/UZnvq37It1hD/Ssxw8UXDVKI7s3OysFlTa/r0DVZrmw5ksGIKfH1JEhCktxQZAisl+r41783Xv9ub+O5UU8pgsikb8Lvg0Y/EyTLZmLMzo6FA4UY3AY+rAxx/1QwVLYHR83h8dbGc1qvfrvz5a+L2+5h3/iGf/nrrbGNXnI0SkIXO+r3lb3ktAde2fo8xLLBpf+p3nXXsq/yOB6bTWKKamfsWKPPMGbAadT5GDciAtiWDjOqZcm6IRDWRLipYokvzlRX0/qpjBuEzdnG3thdiN2mr9P6ivXAdv/7P/Nu/Kjz9nda17zBuPSVxvMvtk46z50+yy8+Jxw7KRw5MRja5A5usEZm7dEN3simYGRrOH5aWD7XP+ky95K3ONd9wvv6j/zfPWAdWFyh2orriq6nUJMIRKshA0JBzWra1rLO1wVC73NEY8J/JWa4ndEoRPOqxmc56nBBdQtTG4Bp1w2vTsEVqxPUNJDoMJUh8487/A98oXXqlUFqttU/EQ8W4rHJdrocrCsEGb47ipec1BMVPV12sp16+CcMxSeMmMXN5MIr0A034h/8DO9+hDaXvd//IX7lu+L1m1vZkjk8QkaGdPDHBjYGQ6c46VK7bzKuvkD/2m3y3KNNx2jqDlJtJhoSMZp8nPSZxYxCNazx0uk8rZNjw9elgtML8Eg8gU3veGt0yagvmvVlQ6rxMW69yWyJejLzJOYAQkuKsiQ0UH2Fzs/RXXvoHx7Ufn6P+f1f2F/9sfWZ75o3f1278Qv4A58m7/l4dN0N4Xv+y7rxo+jTtwi3fbV21x31e3/T2PFwc36e10BErE6tOWwsgR8IfiwE/VSD0BSDg21oAsUrYOIgdu2sMz/ki6yh/pWYga8hmbykGHTedV0TdFNhNlUMXWB6kyCF79myaOO6SeR9e+ntdwavf3980oVxatbvHYfAw8/leWXU/nLcU2qni+Fg1R+ecQamnUTJXz8RJcvR9HODl7zcev9H6DdvV+97qLko15guCHX3Y19pn3QZn7rJ5sOBESszaCULYXZzPHCq3Vt2q2d4r3qb8uAfJEWQNath+Ri7dhN6ak3oTGUe0fv9D0U7G/MzLngNYUwTEb5fH1xbCL10PpEq69AfyTVNqmsqf58YKrKJ6mDVUjDvCJYNumSxpmVLmi2BMRcIWlHpgqTtb7BHV8iuBWX7PuGhR4Q/79T/+CD704PKww839mxfWXi01lwQVIEXLtMNVbdlzRGZI/HDWgq14EJBn9gE19qkooabWKkrUhMjXnKgO272NEU1xOfRyQrFTegsNVsjdmehLKohdcXEyy6CrlE+MEe+9F3jomvD3MZ43WjcN+wNF63BkpksBj2FuLfEC2wnC62Bcjg62R6B8HQ6ym22Nr1Qf/17jO/9xN63CK4Vke2aES9BGHrvA9YLr/VHTuaWitegGONRLBwksSFObbX6ptkFr0DfuK3RmAd7gpDdMH1CXUeC204k8HbMI7su9x8JTgk44VcSLqBuwgsBmFExkCPCBwAk8NY6u4PyGR5VQ4pOFJMqPOGa54zycWqsaLwAQJ2ZNWrXqd2gfNmZZHiK5atuqHih4Pv1wKv7fsMN60644vgrFlwZSzZMolkGsyxiGdhkyKDIsFR4bRG+gJk2KK7zDFS+FoiLqCJFMiVdZp6mwJ1gClZltakizEyDORaxZZXWTLYc6rJPqVSz7vljfM2HwlOu0MdPMjJ5PzsWD+SjdMFJlbR01Ricdgd5EUo9WfKfPRr/f4PxCfl463neW96t/ehnZNc8bRpmw/bBWEi2HMT4wT32uz7Ryp7cTpTa45XOGCvwtiHOzEaJSpSYdCbPxh+6qXHg4RWxISJoZ66ATUWzmG7p0E+qrAHh9TOMGR7rE/BvOTNADq9/AIHN6qgAooCQAK+xJWObF9BAJsImxgbBGkM858dQkKWoYEbBIKzodJnv/4FXGFedQV9GBDAUOpMNDaxWE/sNEjZYKOi+pLsqszHq5NvJfJtrxCeiNcoXZhNZUUVZkWRVUQlmOrFs6rnItSVDaxIMJ3zIF1lD/YsxA/dMUSFoIQqE/tQiSK8RvOIywWPG/Lz9zZ+6V38wnn5+MDhrpMtGtuTlKu1slW+B0leM+kthuuqlq06iwve6GNjobTrXufI/jVu+wO79I2k0FWqImivybfJNuJeSJJhf+Hb83Cv4NneJEXdowuJlwcC8nBjzUkwT7nApuOS1+o9+KFjNZYZFaA2yLap6U9cl24DuGqHOZhvPJGbAsMD58FNaFb+qPGNgVXwMuiMMnPCxclPUOlEZ43kMPBaindojmH+yk750cDCzyU0EbfL0HLCv8IfgaHwxn4pMGfGF4p0CTtwbhPcR1lW+/aEpEKvJE+ewghVRkQWMm3A0xkNBAoaIOprugMe4Qgkf4nvit1hTHTvMHMwEgR6Fi9+Mg3f3oDrvIz5Lw+paZ4Mkvl8SXeKrlFW6sujfdqd38Tvt1HODxIifGnYyBSc76WWmW8mpThJHiQ93ri8FvRUrPdMeP9k5/xXqjZ9o/u7eZr0hub5qe6IOtwct6WTe0eaZLNz7a//Vb4n7N8S5QiszYqSGlaFJMrDJTW6Je2bCTEHbsjn46KfMnduVtrFid0ZFRQOsDS8HY2u8KA3hEzVHdI+ufyhotRCxQJzGs6GJyFdaUjhPTA3MDI4Ehdc6OMEMXut609RWIHrhxoSCPyzqdkN3l3VnuWMxVp0rhMFYmTKBK2CAZASmyEQq9Ggm65QhkbEqYLXJqwJgvoqcmbJmC5pb19waX7kNH5BFpPDt3CwLvLgaxEgiLwhkKHxgYJnXUnvSF1k7HSvM8HloXvCFiQr3raG/gei5YeigJgiuJqXLGM/rel2D+8pYpyhRk1HJtbQ9+73Pfcd77hXu2CYvO86rfYNS+Sg5yssfZ4vhwIZ2YmO0btZZP2kOTNOTn7d048dqv7lbqYNnAZ493D9bhOgWM+gsITgWTHNleYG8//po45nx/ynwbb0yk1Guoo8U7cFCO1GMn13xy6erV78R3f+QKikQNIt8swfofTkhcIMhbOXdMBirZ1riDDcOXAf7poPv85zXVcGP4F6sin+M8q+zqk7nBWaTWwy+3ODxj/0ddX66OoXP62B19PgJ/OU4nRPo/BSOz3jKnAi/DtHUal2o1et58DyPiI4VZuDScPeg4xhwc88Y+AN1xnh2Gb+OGnyBBobQxVQoOMt8/UnDpCtMUu97wLnh8+2zXu0Nn+Qn863EcARRB2em1EpM2KkJM1toZSf5fo59m/zJc6wrryWfvrXxh/vk2jIxNMk0JWbJyGoqmoB5MUjZ0uWFJfn2O+kLL/CHp+PjinHvVJCq2tmiMzgRZDsH79voX3A1+8Y3laWVJ32Rro5xHSvMQEfCY1OeedkZ7gROMG2qECRw54GnSGEeLyKI/DGfsgYPbVmTl/bvJO/+aLDxgvjfq2FyimfU8nzKkRafqq/6yaqVKlupYpuv1J+FOKf92uutO+6kwrKuyBa41ZgsUVRHVFFMUTFlaqumJRiK+svf6K9/n5bf5MLvpoG3qp3Io/RomJmAQ0Wp6Vb5+f4NHzcP7FIV5ZAv0tUxr2OFGQgclxHqrOQ1wOHmFl+lqkoxYhTrnULzOgVXB6myihC8r2vqvffj937MPeX8MDsVHzfE97VLzca5zd5AMUyDB1UJsrNuctLlKfpT8XmXx7fc6jyynSqSSi3DcA2qUxUJGgHzJSi6TluKHdYMpu7Zpt9wsztzrrdugpfqG4WDFLT+EZYYjrPluLccZrcGr75O+9WvZQ/JR3LPuq6OjI4lZgiu8eo+nYEmxIHhGzLAuRKdD0pyUwONW27qWCaK/rs/OW//qL/hRf7YrJsbdVMDcd9EmJ42Bze5vMRrqZWttPvLrdxGb8M55mvfZn7j29aeXRpSJMOoGRaYFEwg5KUSQwIhIrw2WpLjCc269bmveedfGWSq7R5ww8rxwKSRGTfTY2Fqgi8XyWwOTrnM/ubt0uL+xUAXNXC4D/0uXR3bOlaYAa+MRy8aj14ERCSVpy0zwksWgUsmqnz5LjhvIsaCpsrzjxrX39SeemH8/44F6RFreNgYHnZTY1q2og7N2KmSB9gMVuL0ZHTiC503vlf5wx9FVZW8UFGMBmELBltWdYEYCsQzRJYIEnWj5voiIdr9D8aXvrE9cWLQm+NWJcWXHFq58XAQaKnEzyq0Js/z3/whbd+jdYMcMDUBrumTvktXx7aOFWb4WIphSrouUsbDGJWHMeChQVRTV/GyyveMb+gacxx9x272ic8pG89y0+W4fzRKDPKiw8m8lZjQByvmxIybK3nrx9z+sn3epcZnv0D37VX5RHVrBQUr1G5oVNBRXYMXlsCooHZ2s6Nof2zLO3dHN3whrr4gThb8dDYYrvqJfHDCUJwrgbWJU5Pesyb9K97s3v07GUuCaYnUhqt56Bfp6ljXMcSMyvPHdIBERHxQEjw0OOk6wisI1xltGrqsaebSiv3p28wzLycDZSs70h4ej/tGeTmY5FRnk2RuGaJM0Z06Vbv4KvSlr6Fdj2DTQzQSkL+s2iuWI/Ly30y03JphrhBCIEICGk20TFbIV77TPvNVcWZL3D/u54bsobKVLnh9Y3Ga74Rsp2adky5xbv2a0VwRdYaYrakOXMpDv0hXx7qOIWYQMxTMRLWTKNFJs61jAsw0CVVNC1s2FRX7x79wLvlP54RJNzVuDY86Y2OdOf6pTp2x2XhdOT6uEOdPtF91rfr97zXqNdHwkR4j0RVlo0a1us0rGFHNUix7xdCXMAFbo+u6bMrKH35rvuYdUf+meH2pnZzwByaMgZI1UPbBQ+svOuvLZPw0+703Gw88SHxTMk2KLUsyj+haqK6OjI4ZZjrzM+CSNWSVzw+Cn2aYAIyEKWOmo7t8H/4HdtmveZs9e5aTqsapapgYZ/3gOPEdGIPji05uJuqfjHMnBle/Q7/jJ6q40nTdJnHEmqYiU9ENyWCCwte3qLotMlRjuE41TdBtrNmLB9h1H3RPPDfuKfjrRoNEoZWbdDOVcHCqPTTt9BTY2Eno4tdq9/+ByoKi6bLt8NwQEfFkk0O/SFfHuI4VZiB0wVQHZmqyyicxDQPi8oaKMdZcageKiR9ZaXz7p97Jz/cHKz7fCWxj1F81eyBA57XFWv0lra/kbHpedM3btbvuw/MN2dDrjlGnRJAViO2xZoBrBwcE3w8xsGk8wakhUdkKyb4V/Ws/MM68xB+djVOj7dREK1UJkzOtJN/nldeIWF+2zrmcfOFLsrgo61RRdb5tkwanjQ75Fl39K+iYYYZqFE4O0xWE+OiZ3tm6EYwCNnxquzVV+cWfVq672R8pR72DrcxknN0aJTa6fRU6UPAHy/HgDBrcqL/2zf5vf4NoS7ZiiZkrmrxiCIIhMr7fsC4RowZXgVD4H1CjiHK9rjb9QPnZffTyt1tDW4LUeDw0Fg+WW+kZt39DnKiGfUWvrxQPneJdfwPa9/CSJQuajiVjhbC6QSWTdudn/gV1zDBDNIb49P+KSWsWbWpMUnn2JSU2sU1RnDc+/oVo+sVWcsjpG2slN8WZk710Vc8MeqNDrfS4P7S1/tp3o5/d6xEIzfmWLNCa+S5LplKjYmfPRybpTBJkCPmZZmHVqVNzEcvazh3+dR8Ox55j9I16qdF4sBglilZ6ig1saA0U+VrozJbWFW8jd/1iwUV7TfAVNUc2Jb7TKuUFOp70Rbo65nUMMUNVniteM9kqMwrqLNhjtqrT+iMP6G99X5zeamVGQr5BxeZW30YrXdIHBqNENhqZ9Z7/cvV7d5G5umb4TTgg05huEgxWBdV01LSZojGiEr43C2Z8V2Hs15leX9yn33Cz/dyX2ImSky6008U4WYnAx8tMmkNTYXLcG561zrjE/sq31X17Vxy+YS1CuoFMTHRwIOudDPlDvkhXx7yOFWbAC0MqT2Jt6HTFJBAtIGJQ1aKajVSp8fM76Utf7/dOOwP5ODsZ92/y11WtVMEeGIufNRBteYH7wU+ZC4uU14ak+3XSsE3TcP0m36a+bvHARsW8nhcxeFnNJURruiM1mvTnP9dPehFJlkhypDUyE2dm456puL8aZcvhQNFfnze2novf80GydztPSaMGU0yiGgjzfZ5FXV+0+FasT/oiXR3jOoaY4SVliMY3fNWRwPiiDkQs3q3XFuVbP8fOvNg9vhCk8hEfAJiJ+itRf77NF05Oh695l/3HhzXDlC19BUvLBoWmjJGm6Q42HUkzmxLPjpEdXwkjiVmNJloxmPXz38Wvfpc3usnoHdITQ+3BmTi3hW8HwPeNmYj7R+zcFnLtO+Q//LrOmopjaszFsqmITIbT1U3B1OZ1LHTtzL+ejiFmZL50if/dFca3ueR74lFT0Rma28ve9gFnw/PD4ydafQUvWXT4xGWJF9LuL7dmX2h86huqShTDa+q0xgSRlyxhTUQkw1Y1GyNTQEZds+qWLSNdpaaMcO3hPznv+mhcOS/KVCCMcbNjfq7qp2daydk4C9ZmLO4f0897Bf3Gt5GyVKOKxAzCvCa1GwoTJcT4KBxboaizJrGrfy0dS8wQvrARUVajfDdGCDyaVBc1hB/Z4bz0jVH+1HjdeLuv6PTn9cS4lyvEveNxasa96PXST3+/GMUN6vE9HDWB19lg2jKlDWYi1WQihOzOim4twV9ZErEKH2qIt95in35h/B/lOFFs54qtwaKRLRipopusxKnpGP5KYQv96Kfpzl3MAzOFBFGTsLNou8tME3g9dYZ54UnypG/R1bGvY4gZXhOIL7JlDYoEgiVghu8Xq6CdD/ovejWvldw3EeemWsmK3zNOsyNe/2g8vNl46weX7n1wtxtJekzg13ET4n6+utPiFkbnK8hsVWCizDecEA2sLsyTH9ypvfACc2TKPT7PUwcSlVa2bObG7OF8OFiO/y0flE5H174Vb3uYShIvlEYcQTJqAms6fsN1GhrVmqohM8b3w+jmAfzL6Vhhhi8J7mwsocKJMsJ3KaK6hOFNRdnxZ++8V8YDG+Le0Xhgqp2uhv0FNjRu9w23hjboH/pYY9uuBTcmqK2pBkMSUvhUI4QxKrEI3xncIhJFjKiWqjYP4O/8gF35Zqc066bG+dxL34a4fyZKlNzsaDAw1h4otRMbrZe+UfnJXYoiqJSqIlU1XyROU9GR7ii8ni1VBVVTNIM56pHcG7WrI6NjhxkmYBAV+Wb9TNYMaPQI6QpW5J1/tl/0qmhgNl43GGcqnJl02RqruD3DQbpqfPijZNdu1Y31pq9JBqVYlwhAIqusyUyRmwKdakyzkKEuGD/7sX7VW4yBk4L0aJgai1KTcfrEODEb9ZXCzFiUHI2yk/pzLiKf+4YqCaLJd0UXFcDPlQ1f0R2GdIqoinFdRSrSdcIzaA75Il0d8zpWmAEBNg1C6nwShTMjapammBgCm0e3G1e8PhjbHB83ECfyQapkZavRxGy7Z6zVO+G84S3Offc5XkhXDEXm1YdNbDBVFxW6pOJlBUIjhGLDaOz3v/u96HlX+qOnWulJjxcJKMeZ6bh3MkpU/UzJT44H6ybs8VNXbv10Y8cOuEY1WeE7UeqWIMP5WNh1EYAoyFRCizqrMxOjI7ufcFdHRscMM1RTmd6gZJkoHffMaDLLlCwGP5rbo1/z9qB8Cq+nnC60UmWvv9LKTbX7JtqA0Fkvcb72TYhjVN0TDK9hWqJhdpbimHXDqDHakJp4xw7787eFl72hNXJKmKyGmVI7N7u6R7mXLngDxWCg2D5uLCycZr7yLcIDfxT4ft3WCg+rCMKrE0eMb7UFbh9SMMYNxmqa1dBccCD/6lt09S+gY4gZCBAajKwAMwgLRKtTy5JdjZny8n56/QeCTc/jhWQHK1Gq0jqhFPQVo1SeVx4bmjXfeJ365z/JlDQ1fQXhRY02dD7xrxBVrC1L9/9Jv+Gz/lmvaqdODlLTYbbcHqjEA1ujxIzXO2EOjtkjE3wZZu9UeNE1+vd/hFVJNqwmMlcsDbw8viEyMWQV1yRBYqrMNy+jCmINZi2bbmcvvid9l66OaR0rzEDksKBTgUKvjjBSmwjXkWFoMTXC5vLy8qc/65xxYfysgp/b4KQn/d6J9kCe51Nmh4J1GXvmJP3q15Gvf02+5zfinh147yJ55AB+8GH04x+RGz9qXPaqVvV0XjB2XTVOTnnZGXNgg5XeGKSn2+likBx2EyP2yJT/oleYX/kmqi83bbOmWyvywXXLvGAkHwdnIiarl5ILUOpsXslLFzzpu3R1bOtYYQZOblHXJNzp0rEiEtKgJiKhovuCIgs/u9N46evivpkovdlPzTqJspOcCFJjbb6p/EQ8OBVVTvWfd4n9ijeYb3+/fd2H3bd8wHvN290Lr7Ke8wK9vNXOVA5uG9RXaSUn3fSUnapEA5Px4GR83EiYmTKf+xL6hS+rO3ZIjDV1i8+lqmBAujz8r9Sxwgx02A3dUhBloqxgme9VpltN2Whqjmjq2t6d7L036gUwF1vayQ1maor25K2eQpSoxEOb4tRMfFwp/n/H4+Or7dymcHg6SpXjEybiZ4376/JGsqTnKk6m2oIP832G4bfyfmo0HijGA1Px8eVo0/nG9R+R9z3C6w4TS1B1inSLTxZ1mflfqWOFGYhnJGpjRaOiKhJJMolsmXWB1qgp+K6pI/z9HyoXXs2XmvWWSLZCB6a89GzcvyHqnQnX82VhcU+Zb2afK3kDQ052wEkN+n2jUW8h7p3sVPLfFOc2xLlKKzPupYeC7GD07Ez734bcjecaN31aOzBny5aKwyXsLSoUY+oxHXX9rv+dOmaYgU4dWYTXzKYNIjcNJJuaLEPHr9cdG/sm2bGTfuyz8dSpUabo5cru4JQ/MNNKzwaJaTc5bWemvexUK1Vt95daifEgnfezpTA92U5Mx70zcf9MOzMTDk+Fw+X2wEScGXHSY/7gVLjlPPrRjysP/EnRNJ20KIpk1a/zmsuYUJVvm37oSXb1v0DHEjNqZ9qeGTWq1DVF0jBfgoy1mq43XJMoqnvP/f7LXt6aPSkemmqly3624g5O+rkpZ3DaHJ4xh2b91FS8bjJeP9NObIgym6Ls5ii9sZWcdVJVLVuigwVzKN/O5eNcyRg70T7vSu/GW9QDOxtUqvEhY5+h0EA+okaTqjUsQEz1pJPs6n+BjiFmFGQhaqu6WdMQTyUmqsX3CdIFxJb49L7VUkl876+ct12HC6dq/3fEO56vQw4H8m523M1MtAan2pnpuH86SJ3o9W901led/pI3WA3z0+2JqShbDNePOceNGuvz2shW8+K3md++k2+AhxQZoZqC6irf04Y5rs7rrKtwAmLXzvzv1DHDDN/k0VY6e9LXNdpgWMbI4Ps+aghpdcRkZmm6Y4gi/cXv0HtuJmdcboye5PZMBOsH231DcWoszhTCTNHNlP3cjJeddNIFNzMaZIaj1FC8fjBeNx4nZ4KZc53zX22+/Ubze78j+2qSY0maISMqK0jSiapjzGvcEplRvnS5uzbmf6eOFWYUqoElkQAYTJsaL6AhY0oUoqlMw4aC9CaCH1kN1hJVS310AX32W/TC15lDJ/HRsFQpzpbi5LibHjeyEyHAM5D3hyeCoZEoORCfkI2fPRTnNrVOvth/y43ebT9ydjyqaY5oeEvYXNQsEetUJcShEMgguSHzicv/f3vvGSBHdaUN+9/7Y9/3WwwSkmY6VndP7hwmSCKajElGBAmECEJImLRmjSMLxgGDzTrs2t5drwPLksEEJaINOBGNjRNBIJQn9nSqcEOd7znVMyNpBCOBRJJaPNRUV1dX3br3PCfcuvfc0c2jvNbkpEI2sE/go8IZCOjg6CjuuH5wGHH/pmKFyzo4MjA4MjI8OjJa3QAPbePgwHpr7aD9t9HSm2vWmCt/RTf8hC74ojjq7FLqyIrRZwW6tS9HByTowKT2Z6RR0J2HUN9J6sxl5nU3jd77wMAfX+zfsH7LaHGdVXpzdHRd/+i6EWv9SHXj4MjgFpi6waJZHNmwadPgyBtVs/GOfx/FR4Yzw8WBkcGB4siWYhkmZdNIdXPJ2jBa3jA8vGlwaKRU2VwcXctpzkfXDxVhi3g92vVbKi+9MrLqiaGf3jVyw4+qX/qWdcW1zpLPifM+Y1/42eqlXy59/vriN380/OM7B5Y/tuXZFze/sXbT4ODm0dHNldENtS2b4JFtGhrYUtsyZG8csTYODG8aGdpSGRnglbXLm4arH7olyhp4f/DR4czIlqH+wdHiULm2cWB041B1szfgcu3I8Jv9/UOl8kC5sqE8+oY5sHloc2nd5hJ4ZTmvkXrZqq4bHh5Zv6n2yhu1Z18s//Kp4V89OfTU7waf+cOWv722btPA6zXrNanesOX6irVpuLJlCF7fUD8cvaENI5sGihvKQ4PO5pJaV6xwYuihwY3SGiibw5tL/Y28svsmPjqcAbig/Zy8b5SBneLoJl6aZqS+ziOvGTjCZmfLwBACdzwPLynsLbY4MFwcHipyWLJlcLCfZ7cMDgz3ewvhI8rfBIyUNg1xVppNsCf4OUzKMJ8AYqA62LCM1O9V3DyKj3XCNDizT+IjxZmdA/TghQO2Aa9t73UhjC14X+LUzFtK5X5Oc1HaUsSDeIue4uegkLcKPrDtNRtoYDvsXZwZk36QhDEEjHEGx/u5X7oM8IjjiaWGt/l5//g6w9445YYNaeBtsFdxxiMGsJU5dc6APPVvcdxbtWbj0BjYEG29grc0NCxSgzMNTIG9kjNj4c221mb8BKAeAtVRP2e7izTQwNTYKzlT50b94Bhzxs7xju+IcavCZ25neRpoYAfsVZzZlhJv6Vx57tmYLfLM0VgHAJ/PJzQ408DOsXdxZpJVGccEMeqc2QH1rzaPgdeI3u7nDTSwLfYRzmxHkrFJ/NwBPYEtxdHN24BZNOkiDTRQx17GmbfBmCUZYwIP5meANtt+1eBMA7uEvZQzW5kwEdhsNUFgSx3j59ePT7y04fc2DfesgbfD3skZjy3scY3Rhg9OcIa9snFMfFUfFwNs9PJC4Uj9qwYamIy9kzNvZWemxgSj6pj0bQMNbMVeypkGGnjP0OBMAw28MzQ400AD7wwNzjTQwDtDgzMNNPDO0OBMAw28MzQ400AD7wwNzjTQwDtDgzMNNPDO0OBMAw28M+wiZ1z8wyfCZ9cRYqg0ip9tZkxMO2mggb0fW3gcI9Nm08jw+pHhDSOjG4vlTUPgTLlYMqVko6KZMvQxSdgDZwRpWzrVzeWh9cXhDcPFjcXSxtFyAw3sI9g8Wi5iWxx+rdj/Snnw5dLwq8PFDYPV/iGnNOqSzUbGgWkBZ4QmwYZGkRaubRfLleHhyvBAZfPQyKbh4Z1gpIEG9hJsHh4eGB7aOLhl7eDG9aWBDaNDG4eG+wdGBwbLQ8WasJVNyiQFA/MxITT7ajA5ilzbdcrKGpK1Lfbg4AgviT8FhgYHhoYaaGDvQP/Q0KahwY0DWzYNbB4pDo8Wi6Mj/G9geLi/OFwRVZNMiyxN+mOuYucMkIosm2plVR5VRaAkdorRsmyggb0DxYoatqm/qreU7MGqM1Cz+2tWv20P1Mzhcs1R7IohgoFz9jFyXN7T7KtVlGsOlWvDpUqpXC5WSyM7QblYa6CBvQbVol0eqo0OVEZHqqOj1VHwoFIuDY5UtowwZxD6W8yUj5GtXAfBDHOmalbtP/zZefpZ+/lnzWdfqD37hwYa2EdgPvMH8dvnxa+fs3/9vPn0i/azL4pn/yCefUE89Yzz2xftUlk6rlvnjEUK4E6Bcpn+8JK+/Bv2iRdaR57pHn8OnbCogQb2EbgnnOOcPN85aYF90sLap861TjpHHn+2On6hPvlC99Jr3GefptEh0vDP3I+ZJCrckSapUqRnnqZPLZUdhzjhlI7l3ZbC1NCMfAMN7BXIyVhctaRUW97q7BVtPRTJUzhPrQfTMefYjz3kDG3SLneWfczRdkXVXHDGKtILv6PjF6pYVgSjItgugp1Twwl0NNDA3gHhb3ObwtQUI3+naSRFKEHNXTSzg5oyNOfUysMrq4NbhPcq82OahER0o0mbZfOFp51jz661ZkrRmG2khZGbGk64gQb2EkgjR9EMGXkV7h6KFEaMXDWUtYMZN9hLB893fvkkDbJDxv1mWtpCKbBG1qza8y/Q0RfoaLcVbpWhtAxlG2hgn0HGMdJuOEfBnmq4xwzl+Ug4LoNpefDJ5ace0cPDY/1myjYdp84Zx37uT3T0UgrPdn3tOpDUwdTUUIHkBwUuXiCF7aTjKoBSTYFJJ78PmFSASZh08ocEkwr5HmHSTT9giECiGuyUgRT5Cm6gQMEchZLKaHOCHeZBx4w89YA9spFfzMDOuFq63jgA16rRc8+7x56nIt0y0K5CKRXKfIgQTAM6lAHcUJYR9uDt4yDOEeGsMyVwApTHdpcFwkB2G+xwwrsCbrTT8jBCaTEGnP8WwHXeoszvCjrowatDHRp7Ui4ng8uAwkwu3ruFCO0crMInEEpvW9TxRtnmyHsMFMAOJQTEPpjVPlRUWkZSTiSBZ5EHf4oee4SGB11vaPPHXFeR4sEAZFXp+efkseeKaEEE22QoVW+tDwlUcAxo7DrqnPH2x76S4ZwI56cATpAebd4P4EY7K4/ACePyOvnnexoQi3G2eHU4riNQTmFAm9Qpip2dlnnnkGFEBTtDKDephFuxjRbD/uRv3yOE4YklnTCLvW6GggZhABzJq4Pn0SOP0fAw9zR/NDnjNblHFYCVBNgSSANohp3CE2WuoHpjeCI7rmiDaSfI223v+66hoMh3uPtbYPy5psIOF38X8DgzVmmMcaFURlZuRU6FdyjhO4f24E4JnDCphB8w9j7O1MEMmWhsYOIrz74r0GZnQNVMuD1vhzqddhNc1B3uPgk6kIZjSR5c7qJ5C8Cb2jOcgU0eN8tjumaiGic4g33cbodyvkeYVMIPGHsfZ8asAQs0N23dXLCI102EFw9AFCYJ3CTgBJzmbEMPBjyTCaEZF51Jd38XgFDutDz1YIwJU8ekbz3U5XvSxd8FPM7kmDaertnumnU14WHnZd5D4OcaJy3fetvyfCDY+zjD4amH7cQdz8lfMZgz4ZxrTAWcwJzZ/joTVFGRHMPYMzEPRMHdWXmAuhB7cjwmym+JSRd/F2DO4HbsfXliusMJdey0DvcgNOp8gjbblGFcCb6/hmgvtDNepDFhUurY7hxWkxMm6O1QJ9gY/cb4NkYeLxSuG5k9ovZ2qTx8R2cMmbcEs3pPlGdMOsfFdNK3W7F98d416pU5NSYKM6k8Dc7sAYyr2+1U8oSGHlNa3OeTdqYETtjqfY3Bo58nl29NxXcN5uHkAkwCThCR7A7ITQKXc9LF3wXq3BvHhLBOVGMdOy3zLsIGjKmAc/BcY4RBkSaV9v3H3saZcJaM3ATY5/E8H6rDyHuAbEEKU1MAJ8A58byCMdTbbI84P5PBormT8jCHI1kJVmwDFc1Pxh7hzFYDO8aZeg2wxuH6HKvVXSjzLgHC5xhTgjkzuYQfJPZGznjEAENCwFi4rLeJKbn3ydg5OPT0eqLGO6zH+pH4+DaYVIB3ARXOTLr1W0LVe/y23npM39eNp2vksd3znGG/aFxx4Haw29ypDUFJE1f1nkAk604NWPvti/cBY+/zzZgYgYzrT2tfSvmSsjkpmhKiKQ44s+JiVlw2xXVT3J0SOMFp6rKb4oDTnAAELuVPKcDr/ay/Kd8znAmiqIlJBZgElEfM6kLhufz8CAkFNCc14Eu5gD8N7JHyAPX4rd7tUecMsxFRoj/l+BJcJ01dO63DXYFujqudwpfwXv9PLiSj8U5zV+HV1HZ1NFF3oQw1x11UcazbaZ3ttPQ60W4R7cbWjvbYkW4rUrAjeccbbS3ZSRuD91bbG4LtwTZyJhDJm9G8FS0AdrTgRPKCR7PmNDjpS7vN3mgoHlCXdlF9rIBRDO5zU6GcZxPSmvtkPY+OHTAGdyGMFTgDEnLBOudwTW4/EnxHOEbe9uBEUBJ+KBntUdEeHelWRoHvGEK4zCGNCmQ0VAa4jeDYgNzjdryPYozxHMVAbL3VKI0FfmxA6kWtR9U4od5PaGShhvBbEc6brb1mS69l9KC6vKrLS4OBmtkW4wcnP8WOqNf2VED9dx3sxHqkPwlhA5MdD/U65Fer3JSQh/fLHH0UOTNGj23qqP4R6pBCKZphUGq2PPEs69x/shdeps5YSgsvoXMuo7MvpwVX0IJL9dnL5NlL1dlLseOedTEtuNhdsEwvWCYXLHPOXmaes6y26GJz0cXq7Ivcsy6isy5yFyxRp58vTl7oHHO6POgEN3MEGb00PUX/2OHOaKeZQCf509Sc5hkU4T6KzKFQLwyC6+ukcJL8eQoiXk8qI2kZmUo4V0OZI/DHUur/aytljh48a5m9cJn0IBYuBbCjzgEurkOew8fthRfaC5dY51xkAvxxmUL55y+heefL4+dbh59c7T26mjjEMbrdA5O0Xwcd2OkG46I1Zbcl7VhCBRPkSxDbpaQTydTaoA5yNmjgA09ybjBHvow7K84DaiNZaHcKpOHicvWyg5Sjmfg4h3pPEudeLs79nD79n+n0ZXTmUlrwaa7eRZfqRZcK4JxLxcJL5cLL3HMup3Mu55Kfc9HUcICFS6YA2mJoyRers09yD4hSpMuKpkeM7GgsbUdSFEJMVWBVgmCPqf6+YC/jjA6nnVlR8+iTatfdIO9Z6S5/hB5YQatW0aqH1IpH3Qcfc1c87K5apVetdFeuopWracVqWj6BVe6KVXLlKmfVKnvVKmf1Smf1KrFqlVixwnngAefee+Udd7o/uZm+8wP60tdp2efVmUvNT5xipQ6RgSzNjJMvRZ41sKCMQ7maP6lBYEibrwAN7UTiOpIU0Vwt0lMLZWU0TWjy/TrFJ86sff276u773BWr9YpVevkqbLHvomwrH6oD+ziCEqLwesUjcuWjcsWjcvmjBDzwCN27im6/j26+k/7z53TDv6ovXCOWXiFPPJu6j6XobPLlwGeFaomkOZ4OJe1wQhhpFc2hMAIeZnOKAjkKF6CtK8GEHUwSYhUftuB/zvQlyqFEJQL3L03dx9AFl6k7bqUVD9N9j9EDK2n5SkJpV63Wqx+Sqx9yVq92Vj0kVj4sV6KSHyVg5SPu1Fixc+gHH3buXKUu+CdWQK1JEclUgrmaAfc4CRWgAt7QtWjDzkyJKTgDk90/q23gzPOrd91H/SMkBWlTU9Umq4YPWiuSmmzOdsi5QAS5jgfsTMAhbWttWyRMkhZDWOQ4ZOOH5FRopN997RXn2Wery1eNfvO75QuuqB0+z2zrE7G8asuVIomRUGI0lDIjORktuJFucAZ+mhXpciNJHSuIWJ8NPyoCziRpRprmXUS33UtDQ6QlKcEFxlZJ/ojKBlBk/kpywaWXB0h7KebqO94+fyUk1Wq0+U165Y/W7x6v3Xyz+ux1dNxiSpxE0cPJmG3GCpWWbDmWNmMpFU4xMcIZgivrzzCvwvlaa26wJV0NJakp4QZTCPER9Feau4b8nQPhRCmcNo891bnxerXhRVLD5FqKLLEVNoAqEq4tXUe7wuWa5IwrXLzdBC7/5ga6/iZKz6Y2z9f1FXhUBIg9M+4253Qo78I2NjgzBeoM2baO6h/ZzgQy8v+104kX0a0P0aYaQd4dp6qtkqvKkLe6kGHH9cQMUAzscyZqoH6C9AhleaiTCwIMifV2bdd1HGGVK2b/oLXmDfHiH9yVD7pXfck55Phqc5cVScP7h9qm6EF2uLAxkHD8eSeYroU7dTjuRvI6OluEcg4PJu+imSk6+1J64GEaAje9pFgekRn4WJcY7IyVBzLpgBuulEopAWgpteR2gYBqh5SttKVqJT004G7Z6K573f3jC+6t9+hLr1F985zAbMuPcAjua4aCSemPS18X933Fet1QuuTvGgx22u3d0NbOzHgllDAjKQRCIpiyQumakTF9aeuoec63vu0MvmxRtcYJVTi5ClePV5nbcXgrULmeItgd2KYc6K9986ZyR84OdEBMyddLkR7u/+TOj7wOZNml3EZC3lvsZZzhruT9WumUC+mOldRfIkdURa1CgDJRcpSeJVJjBxwAhbDrAC4JT4PjOceYUxfTCeBXeHoQzEtVhTNhsZQQFWxrVdr4Jv3mMf3fP3SuuMKae7xGSHNgFt6/ChdKAbRltx1OV0Id0t/BfXpGL/SigI8U7LBnxN2zL6YHV9NIlSXfsyh1A+PdYwz8kcsjGWxq3HrhmS68C2jtSsUUUgp/hcYXoJNlV6qb3qz95inrxz8Xn/6C/MR81XIIExXRVzSPYICCKTeUqhjx0XC8BgsTKVAgazUnRiOJajTFQZc3yE37M3L/uJ57Cn3127RpjastR2nbBU1dlIHnVNVLWN9uC5QSX+8mHEGDI+Kb3zPbCqC6bs4of58dzcNJg88pEb8hGPMnG5yZClNwRofS8kBDn7GI7r2PhgclJFqVTKpCP6NluVEdRXC7OJsuPxakdExFk3RI1kXSO0/hIGc/qFOID7gaup3FEkKNb1hgSjiMb02LdJFqb7ovPWV/5mrdeyrNmk0BKEL4PCBJD4f+oXanqU1BLwZxHMFDyg53Vg/sNBcskQ88qIsj2tWo3Tog8hCW+tIlY4LDLPGKhtt585kA7E6ALScI5MAKeR9hARSnbiySW4ZjaQ+4v3lCf+278tjznNgcF0q6bQ5FuqU/MdrcOhzptFoyFCuQL0vNGTuYLseScOG0Ac7keB5iU0r9Qzt1n0RX30Rr3yDToRoKKnWd4tAlzOA6YFhQix64ojwdtJtA0w2U6fofuG2o1bT25a1g33AsU4wlQWy7pdcN58EZvY2EvLfYyzgjQ8nSNF/59DPse+6kkQHPfahBqD0pr2s+0MT2tixsEDy0LdhikqiRU2M+2Ta8AbKHyAJG+WlxBOECxxmerwBtbym3piVOd92q45Qr2qk5smLhF+vW0H/dRp+8yG3qMf1d5Y6kbRRMI101OkVzG79R8Rco3E2IWaNJc1bCOusi8cADNDqwjVF7Swgv0sKe64C8Hjy3jIWqThvAs1McRUCGLQQ4gsvNNtSyaahfrP176amHzSs/X517Ym0WmJCTgXTFSJjhBMXy1NKrm5IasT5PBYMoJCmQogD3TZuB1OjH282DP6Wv/z5tXs905fuBy+OcqVMFZQSgfBTHMygF9NHuA/aThit044+oYy7bvUC3E5o90pIdiSUrkYQV7dHhhp3ZGabgjAqlqzOM2pnn2Pf8goaLW9tVQspY/UKEbMgUxAgCyBTyhI4FDo/G7e+JAG/BIoT+8Ic4PRWugzrgc+uKHyodDIL1UrwWD8IMRyO8sOAW4UqvvEY/vcM+6dxaYm4t1GUHsraRsVuSOtil/SkJ/zuY15EMOGPNSjgLl+nlK9zRYc/lAgs81D2w7TFWPFco7bhsBVk0x8vrWSEYKugI18tBB1PlSTJ2PXcUz+u4ouoUN+onHjG/cF2p52Th63N9PGbCDbOTxio8gKbMShzhye5J7gkMZkQkW4mkh2Z0lT4xz77x3+TABk4Tief0qoSBHc8USi/2r3eq1MGmB+TZTUhbjRStG79fbe8Wgbjrg+mb7cS6hZGWCBdDeRUEkRrxzJSYgjM8sGVWhzxzibp7JQ1WPXFhbqABHZtDlwrRKA6AMOM9ZxPneA6Yp67rLgFTg4OGcUXvnbP1W49nnlaHL4Uf1m9R9jjp9q+v/fBH4oSzqCkjmng8pWrPUCSlgxnbnxP+rEClG3FrZlwtvJj7u4vlOhf5ct7OmDhuI5S8y00Ao+hBAJ7NY3haQOG7qiSTS4wz+Zdbi8oArziqLqrHH6/+01eqmRPd0MEU6qNwTjZ32TPbyID1yyHiZwsDwsDmoHpj2UpLZrgpXjriNHBG9W+0pa5Bo6BuvIqxXNhxtubVMZs+1nuCrzxK13sCdwOOZY0MFL9102BHuuxrlbNAZq8PALHrrIRqzoIzbv0d8bg8vLfYG/sA2uikxXTLctropZmaYIUn9NhUSCMOgXCjgdG0QkJrK6hvdschVa5GWItH5aetmyGWNpY5fM8dBp5Mj0khGCJFybHGriap4ughUoNUkX//I139Heo82fX18qt0jzMoqhXIObA8oYQV7DAP6NDzl9IDq9j3gABOAY9LoDDIw4WpwysDDuKh8KD8LNyDNmaA0FZsa/A1TqszB+c5cEwFlYbpuRecq75RmzPPbPIm3AeT3I1m5BBYF40UmIN9doSCaRVOWaFEdVqHc/Cn6GvfpQ3rvet4pfLKw0wcK6N3I/zBtzXoJ5j3sULuFnC7wUF903esVHfN6DCb4mImDEuGmpI0I66bc8oouK0IEbfKw3uLvY4zado/SvPO1XfeT0NFdhhQZHZqxhvWhTzBs1COFo5ZtQYH7XUbxKtvuK+8Qa+updfepNfXMt54g9a+6b7+pnptrVyzXm0YcIfL8EjYueaOIqYVSyS/63FHSZThzuNG8CMsYbqqhjuVRmjlL61LrnPaDnOCKRGDw93lBNNWqKAi3SqaEeEu+4AOOmMp3b+KRka5juthfx11EzEBGJONg/TGJvf1DbRmHa15E1CvvynWbnA29IuhUV22XBtl8wQX/1ja2GxBpOGogUssvTggcRaKqdzRQfHYY7XPX1vuO14gym9O8hCKaBYOTy2cqkYzdoTfz4AzLidYSTgHdMqDTnG/ehN3Em4j0NAwilUM1wl/hh2rmtQ/4r6xUf39DXcN6nDdboJeeZ2e/iN97lpqz4pYVy2YKPt4vhD7k76UDOQtI2fFYLq3Ssh7i73ON0vpA8Ny/jnO/b9wykNVcspk2lB68JzqSpd7BSq8Ncu0cb144tfOPQ/In99BP72TfnoX/ewuuvkOxs/vpJ/dQz+9W/zkTuvnd6u7V9Gjv6U//o3WrVflYVebUpuCX3iyEqxCuyOKkDa/P7E4yGF5Eqq6aeO6FStLh86zwrAtnU6g3QombKNAbbOpteCGk/KALo8zK/XosNe7UA+iOY6uhyl1cCcUGPjQo3Qrincb/fx/9c23iJtvsW/+H+vW2+x77lUPP0y/QfFe0uvAbZN1fN0OKP4tSmlyv4fnMnnemcldaqaobbEefrBy6ZV2tI9mgjOQyLSIpGUwNWqkKkZKcJzD7hlbm+md8uCTxFe/JTetRcCEq3mMcbRrK7IUv/DFLb13voNb1LPPmQ+sqtx8u7wZRX0LuDscmQLuT26h7/6MTr+Iwkm3JV6LpIrhbLUlq6NZCmcRz1TCmTLPKdgqIe8t9jrOpOU0Q5y+SN59nzs8olzpoF0h2OxDeG4DK0U0OsRcyNdeE1dc7Rx2kpOYozLHyMyxdubIWnaukz7YTRxBnUfq9FF24WiROYrSx1H3qXTCEnHNtyoPr9Ijm0hWYajADkgl9197/Wr8xsJbbgREQiAkHbu8Zs3mz33VzB8Lj9GJtJvRDstIUqyXpyrMitP+CR7ntmK5O1pEHcN4ea9btrUvXhSjtXpjrbX0Cmv2sSJ+iJs53C4cXu4+zCwcbhU+YfceJT5xEh13Bs2/kL76Tb38Qbn2VbBX264qS7diaWGDOWAxhBq0QfG4mLZju6Y9+Ia1+v7aofNcXzePKOM521kYQzuUh0yoUCcEQoXzEh8PbFOHnEBfg53ZzArBMzNe8fi9EgqNauDyCsdd94b41r+bJy2sdc0R2cNk/hMid7jMAofVobKH6+zh2KrMYbsEnFk4SnfO1Ry0pOtjNHnyJlqcZYDHvNaHbE7Iw3uLvY8zYlpEnLZI3gXfbAQEkRrRseQnGOMMWhchMtwWJV99VS68VLb3ymkRtymnmgtOc9pqbpGzOmhmyp2V4tHBPIoxIZuT/LK59RDrkNMqF15l/+x2+tOfyKpwBATZqb+XcAWHCnCP6kuQck+wFkNDlZ/epo4/l/bvErFOK9ZphxP8PiGYZXf8gJQ6a5lYuZxGt/HNsLMta8AjpfWra5z554vWbj29E36UCCYroYTjT4jmLscXt6M5PIVOonifdM67TN74I2vVr+zX3wRpybIdaVa4Y8ALbLgGvH41h02QEkX9yot01XXUcyKPOjXy4IwNuQwV0Kwq1AGBkOECPjoHtnqc+VfauIWp4V2J/7FThkJ7agJ/lHTffF1++Xq75xhrP0M2d6lAUvoT0heXzWNQvoQGmnkiwC7OBeAB2tsIwAeMfZMzLIpaw86oRZepztnujBYKdFOwTwWhUzuJxynmrVhOxnIEvWskitH4YEvSjOSdWd2275DyMefrH/2M1r3mOogzcFXIDYugiRux/DBnuK8A/ClX6Inf0oWfI3CyJeHEElzd3gwcHjg8LaXPWiaXP0jFnXHmtdf1oosoPpeaUhTKuZGsFcvocFr7EbvHbSPjxPKOkS9N63R8fZQ/dXTJF6r3LdfFzXCWam51kCqI7LhvzR6rBg7wcHXXpOENtGIlnXO5mlkgUMXIWjydeJc4AxPIPX0eZ8bsDD6uW6v/5QbRd5yzf5RzrEYyiucjpCUbLiDNxeYpEoiU0tjiI6zHzrC19T947Juc8WyDdl57VZx7meyarWa2ULCHwrOV0S0jcTLgpXSPtGXKMfj0CSfUWTU6Ki1xau8hX572Sw035c0TF9EPfuyu2yjg+rCkK4d0jaWGtTkrXbCJO9oEnBn66vdk68EKUo5oIZwxfUkHEmNk6cCMu2CpeuA+KrJvNjVn5KIlqmsOW6cQu/J2C89wRKQB2ggDvgpP2uHJCNPSNCO3OX5w5bxL6ebb3U1rTFWq8LBUeI+2FqbpFZU5wzdSJGtMm5t+pJLHK3/BCSatKGKDd8sZ+JYb1tG131JzPimmtYAqAtF5NOMAEQ6WOF7id1MZgS2IhBPGj78teP7P1tb/4LEPc0bVOSO6+uTMGOyMDvcJo+BEulwjReFCJZqp8mT0BA9BD3SRv5O5hBsFMyVfyokfSvOX0VPPiFIRuhuVg5iJh7R5koP7jXEGogkp/Y9brJ5PqmjOhX418mYgbcEdj+VpRtadf5G67xc0shPOqNdet89Z7HT2ypldMFAQNSuaqXOG/CnuZvUmurHL509RIDEUi1uZw2jeMvXgCmfTmzwyiF1Hy+LBz/DYBI8AQi1wAIWSm+6qR+jsK1V4jmhOiEhS7A5nNq6jr3xbzz1BTG91jLQNekcysF0AJ8RgjOfKqafRGDs4BRqc2W3sIc5oZ82r8tzLRddsMTOmA5CSXjuct4wOGUrAN9MBnl4iQjwrhl/wHdjhzmx3oikr2W13dGt4Vskj9M/vlmvf4AAJYu29JPHkHIIDx8zr4Ob/tLjrAfO4hYpHQELQu61wzozlnJYczczSmRepX9y7C5xZYy1cbHb0ODM7XT83mBlBwcY446X/QmmzVSNjtqbsjkSls0PMaif/HPfKbygQWztlbVWYM5ZNjqMdKcFxrhChaAQlfOVl+t7PqesY3ZRU4cS7iGcmc+agEyQ4E07bcCPDaTOctkIMzjLDMlefPs0pfG0+mJkC72t8vyvYZzmjXC1fX6POu0Im5shZLTrYLcK9FoyA0QF/jIIF8veRr1v5WYVzqopAqnZgq9ncIWIZSvTJULLS2m1f8235zHOkTb4k5I8lHJKDDVsehEzChfFx7Ud+Kc+9Qkd63KaUaxRQb1ZLzoahmJGl+Uv1LtgZ+Gbi/KUiOUc1J2BnhJE2o2niF/Y8P6wuUnYgMxxKDYQ6hoxYrbPdaYmraC/lz6Lv32EWRwZkzeKBdjAvPI5IuJKbEv8LHhhhl4v069/RkedSuFv7OiXHdbvGGe7o24YzoNCGN+latjNyGq9NJIysx5DtEpGpOoKcCnhsf0rUf/Vhwb7JGTQu5FCseU2ed7mMj3FGhvuYM5FOaSSZM75e8vfYwfxoKFNB9B/tdvxp6Uvya9O2HuHvKhopc/Fn1UOP8kKjJi8ED7nxTAtuw28XcQtbuWVynd/8jj7zL260V89M8Pz1aLcdy9rwAKeneWb1rvQBrHlDXbBMpg5SzTyPkjkTScHT8wa51DmTFaGc1dJrBpPmzKgIt9Ra4tWWAs08jC76mv37PxTNkgBhbG84A/tjMDRe/7tgU2Mpx3n9Zbr4akofIQ9sFYHcu+WM8jjzLTX3k+AMp+mpp7kal349kT7XSwmkg+PrnUyJDxdt9lHOQDiVEq++KhdxH4Cc2eJ6nOExyHXOhMCZggoWakZhMJguRvJWS5+O9rrBPI/CCmdFU2c5lLJOXqzvvp+HAXivEXF5r6sZ8oObepyRbhW3evY5+pfrKdonZ3RB6aoIz/1AtE37p+isT7urVu28r3nN6+r8ZTI5d8zOhFO1SEqH08wZP7wpPD6MYYE6DoZXSfu30cxW0+gahS36fxk6YrH+0e32yCAuUx9gAyl3SNj8npepjvLCGBaH19P3/ouOOM35eIvw7wZn1q91r7lRzWHO8HwhFMzLdDVBGB6S48ENMiY+vh08zmxt6w8e+yhneBSJEq+8Is+5VHZClLfGM/DNwBk3lK8FEiaPR+aMM7xSSiBv+zI1X6rGw845iqBojzpuobzzLld7nIHC9nqZocm9F+WImKDPXQ2JAmeu/QbFesXMDsvw6ro+lPgfE7Tg0+rhh2i0tBPOwDc750IHRZ3ZBcPihJI1I1nnjOtP8Xi2CC/VYsIGgtJN9RnLSdncRc0Zyh5Py66mtWsg3OAIyocNj/FUNe65QJ2gRpQeLW5xH1qpF17kHNAuAu/aNxvnDOzM9FYvEU99PFu2jvriGWMI5njZo+A2R94GDc7sLnafM9xlJJV+9TXtvZ/hvuZAt2I7M84ZyF8kYYXiMpDwcgsWXHDGn+FELTAUwaTr63KjOXXcAnHPnQ6VyVTwdXhwCsskBBGKG1tvRABMz++fVldf60a7xawOK8qDU3gufjBD/9Dlzl/mPLKaSrvEGdHZp2ZyRhiJqHrcN3O5rzkrI7zOlOWPC9AmnKfmnOtL1oIdsDZWV59z6nn0wjNU5dmg9ammILirYQK9fnKuDVLlovmX3ztXXqWbUMJd7gN4G9/M6wNo41XKjLwI55xQtg7JOaW2AYg06chbo8GZ3cOe4QwE+rVX6ZzL3a45uqnV5cQrPY6RsyJdMgzO5ERrygm0q+ktrLkR3oS6HehFo0DRblST1dQOTa9OWeQ8eG+NKo6tHMmEMVl6HJJVlwNuNjns//z61+KqL3Dqo+ZOuzWtwRl4HcEc/d8OOf8i+6Fd8M3G3s/M5vczQViVrBXN8BueQP39TJYztkFAAwkrkq615N2mtB1IFmNdo7H2YmuidMQJtGo5be6HsMMiWizpyptpY/OkaLQp/jetysDfzW98Q7fMkaECj3QOdXLjhvNibOzMicyZTZtRKK7IMZLAZKM2+UGZOtjfuE5f92198Al6equEE+tlk5tY9Hg8KxpjPKccF95B5YCcfE7WieC4d1POw5Sz38/cZbuCfZQz3OwOvfJnmv9p6pwrg+3V1k4zFpeRpBvD1dKOP+lE41ao0/J1MGeaC9Tcq3w9ptFXaZ1jRXrVDBCpTy6+yn78cZNMk+dW8fXhk9lkS1XFLuoLGp3nPz/xS1p2OQUKNCuuW71J9v5uau6pNHWZi5bo5ct3ZRyAOmeJ5neauC/n2qtyppUcBXApniWGI+z5cC9f2ommRAAGJyOMAr6qhlLV/GH07/9Ff3+1wgNUlQKNWcYBHvKDgo9JfXXE+dF/V7qPEb6UbI4LA6LA/Q0wjGp6lzr0VP3N77pb1nOpcDJ+hseDquBRd8zCMiwYOLNpffn6G5xDjqEDDI7yjQLAWQs91D9OAC6lbElbrflarI9Cs2UoX42mrI6CjPQof18tOrvUVhhtT/Ermm0E4APGPsgZuCU8QEw66uU/u2deJjoOqfo7i9GOitEF5UpGN0wKBfIuL2Hr9eoEssqfRVhshnOVaK4Sg4+RIsQVCLiv/zf3xRdBjzIP4PIkycU/wflflM15NryJOg4sydnngzOuL6GYM/Cpelx/X6W5yzrnQnpgl8bOeJyZO86ZvMeZPKcmC7D144iLOZNT4YyIIuBhzqhQj2v0mP50LXkQff1f6cWXvHk+XitC3LFFsOU6UCEoOH90TPnz26qHnSLBmaYusMWOpkUkBV9UTYurw+apb35P96+rVyZOB2sEz0yF3UYRqYKD4M/adaPX3VDpO1r834A6sFPPSkwBNatLNrWY/i4zkKembndW0mxuNUOdoinpTstpf7cKJJS/9f2Xsamwb3IGJsBxhPzbX/WCK+3OI8rNydFwosYZjCDQvRSeTaE+XsYa5DF63VDOCqXKRrLWmrKicSfYLv1tZHTR4cfTfct5DpYriuRWx8QOXg9uJ1yeR8k3hUxZ99xlfvJTUKJQ2KItoxCEQJrDs62ZnfKsxXT/nuNMIO9xJiE8zshgN4V7bH+qCqfuy9+gZ15AIS2UictZ54zSE5xhf9Vxb7/HOXa+CmSm5gxbFaIRoiI5VX5PKvDMNq5gKVqzoXrDD0pHnVFrTotYj2rtmwotPRKGpa3b6jyU2o+gtrmiNWt15EVrH0UOofbDOEUO7FUAjuJWAfiAsQ9yhsUYO7akv71Mi75AyePZa4p2U6QbUQ3EsRbNF2O5LdFkMZqy4ZyEEjqapLYstXdzZ9eMDsdIqUOPpquuolf+yskGtRr15mnyZWvefGPIFITSIsHTFSvWf/zncN+hJqdIzditGceXkOFuFZ2jp7XTmYuZeHuGMzkXsXs4Y0cSwkgwZ/x50F74krX2Hrr8y/qJ38N15IeHcG/PGXbPcBB/71+uT7uAe7qmtjPemx7EbwjaHPZCoSr0mLEaLNFDT9BN/0lXXute/U197Y1TwL3mBvrSV8XV15vX3ET/8l26+ga6+jr5la8pfPWlb9MV19JRZ8AsN97P7C52kzMQarS0EiV66XlaeLlsP1Qc0MGTrppS1AxTk6waqVI0afk6ha9T+hHStEpfOzV3cdrL6ZDRudVjzza//i3168fdShHVolwNwrDEeIMytXCUhEyxXFpVQX991fnydcPtuVo4Z0WydswLloyCAw/+4210+mJO4rqHOAOGIFy2mDNJ5owv773XT5ktBXHhZ+QjT3p1AM540xUQhLj1YaQuPvFsBhBq9WpadLFGRD41Z0AyMAY/Q0TkPSoOOfBFwTzLobUb6IU/0ZO/paef18+8MAXcZ16g3z2jfv987ZkX6fd/ot89R0//zn3uafX8H+RvX1D3rLCX/HOtpY+jtW0E4APGPsgZxOijZJXUluqffl264JKRxMFF6HtwpjlNAV4UzW7LWZ3eFJdg2jVSppGwQ0lOPBc8iDpPFEctK33jx+XnX/ImP3KiFy8TFK4PA8bpLarKNm2bRUqRWarSfY+ohRdXfZ12MMudQkYavpkdLZixHvrHVjrjQk4VXdx5X/OucaaHe5xhZCITnOkhH1zKvLnwYrnyMc8SjHEG4u0NCrCZM/UxpfAmH3+ULrpCRws74QzYAj/PhNnC9bj/zeV0lzZ3ubPnBgdVcKIPLRHUTQE2TpLPqXEDAShLDZeCQ2sLR778cu1L3xhtneM0OLOb2E3OeMmFYQ1G6bU/i69/p3rWsspRp9ORC+ios+io+erI0+1jT6ueeHrtpLNrJ55VO2G+dcICedoF7uLP0FduUrfc6/z2BWvdoFnRlvRyFXvyw2nyLFtKp0Jq1HXKVk04ArJOG/vd675Ph5xCM9pdf04GsjKQgrPhRNkDpP1a6MwletXDu/JOc5c4E+wRoaxpxB3Pzih/gbs0fEk7mqvOXyIffAgXhx/FdPHeHoEzHlk4gwhcNB6J/avH3U9fqWPdO/XNuDLZnVNKce5mXAB1Kjl1Bx/3ngbcsbU2p4CrTJKm0HaVLRWcxBq5o0KXLLItfLXmr/SFa3R9hY8PD/ZN3wx+iBLSLQ7TU087968077iHbr+f7rhf33mfe9vd6o475d13uXc+KO960Lz3fvMX94kHV+hHHhVPP22vXWPVypyqGIQx2a3hrjEIugkack70CumaK21pO66lB7bQo085Z1xKnQfTrHby5bUvK33MGRHNmUaG9ovRgiVq9SN7ijNuoFuEMuAMJ/9HiwYLnDnal7Cj2dr8xeqB1WCLgqGFgvdGXfMfDkV4xpywIbNSPvFLfeln1U45w8xjBw2WwlHQQWylPAvmvZICGz33jRNsTCRte0ugdaTjaM5YANsEC6Oo6kjTdLWNMr3xKn3xK/wOapvW/+CxL3LGFSwfXvoLgm1QjsUajtWuN2QMh70sETz8hX/pTdIS2rWEXba1iVgIXztCiKrDhIGIcAIJtLcuk64ilMFRV2g1qp95Wn/t+7X8CfzK399B/rxuzglwhoec8RqutF/UXbBEPrTnOOMvyGAGvpkVijNnwt0UBlHjdjRjLlisHgRnYAgs9oi88Zl1zniVwknL8ZjiiV+py65SsZ6pOeNq8rrgPE5IHiEEpwqM4cLjkrg8L6LAn7Z7lh3AzeINTWCCcXm4IMJxHZQM5XpjHX3x6+wwb9P6Hzz2Qc5ItjReu3oPhrijjB00kpc9hVsPgM/CW09l4qDXnty2CO5ZPLyXEornFHDSjBo0Nw8ThpGpjFZV1eLOtLUvu//+X9ZRC2rGbBmIU6SDggUZyFsBTrbPr/DDsDOGmn+hXLXHOKN92GbtSNIM8WBQzfm/eTipGU3bCy9yV8A3E8KFEueHx8NBXF3tjQpAhXAWHQXOyMuv4i7gndkZpgQeH1fx5B0bXAj+KFeRUKxjcEK93qYEzuHTPGCD6/D/AEj52mb63Dcc34cpGQCwL3KmPq4Zz8NPAxsCx9kTGh4g4LUcp3aFh19nDH6Ny7AZYhHB/+AWfH8N/xsBdP2jDTeN++K0qyuc6sXduNG+/S5n4SXCmO34s5bRabe1Q4KdcE81nKuCQnDMjJz7cUOeuViteGTP9AEEsrqZE7Gi/WrBTnDGjfSoYMae1V6LppxFS92VD6HYAkG2lyIXYslVwU8/xhkOyZ98Ql3xuV3hDKwViss/BHs8V417BHCE/Tywj63trvyri5fXOtA7sPls3Ply4Mzra9WXr60aXbxs9TYC8AFj3+wD8JShrRBxcq4vxCY2mdxpBDFCm5vcsVatUFXwSxd+A4Ho1ltxBd/yRbTlCG5gT7gVj5Ae4fzonktfdWjdJvPxJwaXfraWPpI+3qn96Vqsq9TeLqMFO9JTMXIlf4IXfonk1f7MGXf5w3uKM6o5q7E10mYgzpMOot2wafbMNiuSthdfwoGTQiwHO8Nl98wlwgkIvyejPDNbqSeekPDNPM7wvOJoRkTSKuBx5tBJnIEweJwBPAWD2mPxwEHBHhYOaO4bsLCdArBYXvRvK1W2CdF/hVmHyyFEfONvzleuLrcnGmNndhe7yRkOZMYkEv/DpHj5YsAjeBR8JkSgJqgCUzMWJ+Oh4T14WnUMuA62+DWfS46pS5zP1qm5I+6rf5I/+bm58JJK/HA7CJnm0WUQ35qRdsNJFU7y5N5At+axnmlnRkwtWMJrNu0JzohgxgQbfRny9VCo1+ZzkqbRTge2wi0sXfI5+7GnOOC3bM76xnPOeGIc/oN8sryDM9qSDz1snn+FiPY4zQnbyIhYVkUynPv84x3y4FPU9d/R/W9ybeA3XJmohvGqQYVAvXjpsG1lO7y2HKoR1oZ7lLcFTp0A16Ni1wxGpQorh9MdREeqTHKUKu7f/2J98VsjLUc5RvdEW3/w2CftjMNBO7QhPAOcwJNIvIjVEyI0pXJttDdnmUUTwnQwvF5ZZhCHv2ht7HJTw/QIt+TaI26pvOFl59GH6Ovfo1OXUteRwp8TobSKZV3O9Zgzw9hJ6HDcCaVEoI/Tz8ZgAVrUgov2IGfsYIKHSwf7dKDHCmcr0YQZbaeZbRSeXfrna8ynfs/l5jVq4HnyUn6cwMnT6Vwz4D/V5IMramcsE5ExzjhbOdMuDz55K2c8xw7VhhqBg+f1p7DNgQdbdmznLy+LJ38tH35IP/4r95dPuo8/AWgP7mMMmsCjT9BqfPtk5amnSjjh4ado9a/pkV9ZTzxe/eUq+p//pYWfUeHDJOf02CoAHzD2Qc445JS1LrnwzBSkh08BCbxeMkgUzhFSm5x/E3LlwVHeak38Ek7wFH+EMgy4ZFSpyOrgUGnt8JoXarfeRku+SJlTyXcwTefFwRW8mhae1Pn+cEYGvYk9kZyO9jq+rBlMVWMJM9ZJTZ0UO6h6zfXms8+D5rigVkIqzqeh8AhQGN5t+V5Ukffca37yXBnmETfMmSiewuPM/jvYGVwLO7x8Bju3MCk4wvpmcJBuXU5X3UBnX+YuvdK9+J/1xVcyll2pln1GL/2MW8eyKwlYeiUtxv4/ly//7MjF+PYquuiLdOFnaekV8uJL6LyLaO4J1JxzeZrNVgH4gLFv2hmoVHgi4Ay0K9rbhOB4ssp2Bt8BksUIP4NEcbzP/csMmCLua+LzoaZHaeNfxZOraz/8kX3Ble5BZ5BxuOvrsQKZsgGnCCq/i/xxCmbeH87wMizBlIhmqy05qzlZ9cfL0bhoSVBznNoPs7/7Q/tvf627VFpDAdima/JySPjsmQmbbzbq3nKrPOR0HSrslDMgCesfbSEA9AatQfGwEtIb1tHXf0AHn0nTUnYsb7YXzDZGrS1fa82b28BqzTuteZDcbMsPxQub2/PVtl5qnUuhHjyLaSTdjhwZcXdWC+Ryoq0/eOyL8QxbGp53rNHeg1vc/nXW0Do9uEUM9lsDA7QR6Hc3baluWV/pX1frX2/1rxeb31TrX6dXX6YX/0hP/U6vfEzetdz6ya2j13+9uuwydewC6jqaQnPJ363hI3HyrqQT6hShDhnqdDkp0fvDGU6Vj+YsR1IqkDZDiRIvFp2i5oybOU7fcZdavxYVgXCb381oSDl8M45n4GEiDC8jnrM2uT/4D5zsBnLSn7K534w54wZSanvOIC6psgbx9AmPkcGBOvuU3LSWrv2Wmz9G/Z+AmlXPPVtHgrP4ciJfBmeU9SW1L0EzO7U/bhmpUiBh+9OwKjQ9QwfE3emoupRjJGrhRr/ZbmM3OaO0F53CNxkdpCd/RytX2SseUKtWitWrrFWr1PLV8sFV9oPLyw/cX77//tp999u/uE/ddQ/dcjv96Gf09e/TP12nzvon+/gLy3NP29I5u4wof3qKpnkrhse6qa2bl3cNpt1AvGJ0DrV0chW/b5wJpBzcF/YNDmE0PRqJc2a2QI86dD49+SsqDkFVWF44Rjw6EzXDu1R1Lc0Lgjqb/66/+k2KHky+LFjH3RVe2ks3mFYHdKpDtuPMKKeo8jpIvK6EegWz/R1Y63ztm9acI+39AhxcRXrJ6BkDv2OdwPgRf4aMArX2aR5X3oNgjPyzqbmXmrvxW7Otp9ied963tWV2BfuineGX9q42q/qvfxGfvb5y7KJS93Gy8EleY7XnFOr9FPWd7PadTH3zqedMKsyj7IkqfZxIHi3jR+j2wyh2MAXnUHMPzSrAhYCkur40zUq5MxN6Rtz15h5TtEAtYAUnMXvf+gAk53BJKX+Xau6kSF635UotKTqgy205XC38DL3yF3LghLo1V/JCtcwZCLtXLTXYXVVWRfHib9Sln9UzMwRR8DhjjXNGb8cZ7gip1XsNUEKvYr3QhvsAnP51letvGD3yuHKgRRoF1+hzjV433KvhcYV6sNXBHm8hXu7cc4MInNKczcfo1YFuAQTBMbhnB6GS3VCfGeou8dLwDc7sHnaTM9xvhva2K+JPz9sLrzC7DjdnxHmePUQfvkEwI4IJMxAnf4F83XAVZHPGaU7Z/qQTSMLTIH+SmhM0q4unavq8ruRI1mIJzrFa9XuTjYNZEc6xTIcLxE3+vnAmlOVMNP4ENXURmrMlW45l7P26ZN889dXvu1ve5CEzcEt58gJzhjs7YHMQhaA6tBaVAX3/L9SZi2FSqNlbxnA7znSpQz41wRnUJOrS61FgoNRjoSACow3r7a/cUDvsk6a/nVMtG3lp1BMAZDljAUs/515S4wll7KCXxyeY1b60A5cynLWj3U6kWwYL2p/T3vKjjbwzu4vd5AzExuR3mVX7L8+LBRc7HXOdWW0Uhm4GOnS0oxZpHQ3HrGCnHewyQ101I25GE1Zr0mlLybaUak3qloSOwv9BiA/VnrNiuWpHQXYgfp0Nf0MFcrXmVNWXkn6w6H3ljKpnCUTQ709oI12J5CoHZu3TL9H3LBelAXbKuJfMqwtYG207bHO8XmMwaNM6+tcf6iNO1Qe0bscZw+PMtO05U+834yp1ufu6bnPAPeCNDfSFG3TfiXpGJy8bCmECEOAZCSfMEB5kOMkwkiKC/bgOdEk/V3gtkqjEUuVIshKKI/5hzy2Udxuc2U3sGc6Qab3+J2fRpdXUQSPhtpG29nJrhxXtlC0p2ZIG3FjGjaZVJCWMpG0krEjCrAP8iSWtlqQT46XAmTbBHBwwK5QphVLFcLpswOzkVaTgorEh05yj6P3gDFQ4J3YJpXUAohZX/kQtlLeSxzrX3iT/+mdRK8F9YkHHNfkPJ6wWPErI+1Sz6KW/uEu/oDNH0MwOSCrE1DYynI3NwB3T7rQufeh2dsbjDHbg4/FFQBbmja3pjfX0uRupcBIvuRNK2tEUI5IcA5NnK0QkiXqQkYQd7rTDXY4Rt6OJSrRr1OgshjtrgU5esdDg6p1o6w8e+6xvJtC8a/5C8y/V7QdZzR21WByskMEUBF2HumWo4PkVXEEAnAcVTMtgWnhwwhnIEyDCnBvSm53G2YcdfMXl4cx3LrwRbwkuCN/7xZmcMAqmkamFE2Sk3aaEE+ymEy/Ut91tVfqVZSrPofIqAcKOOhGwOladM4Mj7mNPWUcvEtEeXgQBTxTO1Tkj3oYznqWBvaoThUfLSNvhGQXr16kv3Sj7TtbTkoj3xjMzbeOYcRDowcuvCZ2C6rVCMEdpBZvGVZ20Qyk8iOl1l0ElNXyz3cXuc4aDXy3olb/RvEsochBN74RYsPw15TmveVOPaOo2g2kLHODsLTmepMnSmSd/zvXllD8Hv0sEc2YUJgU1yIPVvdSBeQg0Wx5fWvs56b0VTu8Zzrz6urvwIt11kKpzJpyvRcBJ2DHQJs/L5vCb8ryMFmrRTDWS5FX/gwWROpq+/G167pkKXFGbVzLkIXN8QcnV4EoIeg030Fq+sqb241srXcc4TQmKcBpE7rowUH5whvPv6Omd6tBT9PXf8XI1cR+Al/UQxIH+gdm2ESo5PE3TdDetNa+50TzoFHtGUgcKiPLrwD5/9G8HDhqb89qXs8GuiDfbBw5tM3RQ3o30iEi3g4dFfNjgzG5iNznDg3khloiE6zkBO+a4M1oJLRrq4Tx0oThqAYI40U5ewDoZ3rcI9MeWC1beafXExB74CP88/E7tjBdQbwfO2ue+8jrNv0R2HlryZWuBnB3uFuEeJ5DXgW5OlBPqo0AfJNJu6aJYAlZC7J+sdZ9U++zX6IXnZW24AnfUtixIdH0BXmm7lSo5Qmi7xC9aavaK1UMLLyXfbLc5brclVbgA3V/PCcgWLJy3Z7TJQ0/khE8bN4PJqEjQhcnN0wqggvCHu87474a1+pobJa8/08Z1xcn+2M4wxmoPzcSmow7tGRyuz3oj8hGvzuu/GqvqsYb+UGDf5Ay3Ni/q8po+93LVNVvXc8+G+urrzyhv/RmvIbfe9N0BF3ln8QzPfNueNkrzsLdX1tCZi1VHXzkQt8MpXrI4hoeFJ8ljc0BLFUgjYnZ8bdyh5++28580P3ud89jj7uiAq21UAyyBa0slhUWSk5KZgizlKFFTJep/3fz2d0fTR3KmwmDajKZECJwZyz0rwgUnXLBmtMpDx3LPovbAEK8uUUIeeKlhsyAYbBW3y3HOqgT20BhTLqxf4Oju0HwfMTQ48xHhzGt02tm6PV0LtKpwJ0XjFItTsM0NtulQhwx12IF2y98um1LamK17T3auulY++jDVBlzX4lGUHHFwXyFVeQgdVwRqwSZbKac65Dy52rrgYmt6F0W6yShYgawMojYanHkbNDjzIeXM1njG48zLr9FJC6SRqsxocWa0qhktanrU2i9o7h82Z8Rqze21YNxq75aHnU6fuZbuvJte+ROVtvCUHx4ipB3twh/lyJ9HZdp8C4dnrphS2q//3b78c0734bq5nSJ5uHnaN1sFexqceVs0OPPh4swEtnIGFa/dNzfoq75SO2VR8ejTa8ec6RxzhjjqdPPIU+3j58vTzncXfZrHCH/hK/pnt4rfPGVvfE2JUW8kGOjHF0PAAXjRuq7BN1PSNVnSxStr7J/cYh5ysoSzF+ryVivoQVTT4MxUaHDmw88ZmAU9XLR+sar8H/9T/N5/m9//qfj+T+X3f+L820/0f9/KGXNWPEJP/IZe+rOyRypULXHmKDwev4qCacEFuDeZMx+4I5zog2paOtUKjQzRbb+wT1taa5nNy4MaGZdHOWR5fFqDM1OgwZkPnjP3P0wjMAvjbKlje864QqpiSQ0Mu1sGafMAbeLB17Rhs9q0xRkcqBWHa7VyVdtDoIQSqsRpl8AT2Ba4YvwGBVtcRiklOZ2LicOVTbRiJZ33T1a4r9Y5V7fMIX+3M73Dae6U0bRs9AFMgQZnPnScQVEnCFOH557hSZSQ2vGm8PAEUgkny1VCaFl1Bae88WYIS9ulKvthyuZZzOAMzhWcPRSBDSdhA6fk5g3uLx+iT19JhSNqMztt2JmWQyh0kDigy/K3W21x8KTBmbdFgzMfAc5w4bW0pTBtaVrMFlVPGcWii+8szYkwBJqm5uWeUvy60a6pWsVBRIMwxksA4vCuU3M3b6HVj9Dnr1XJOaavteprU6FuN3qIGzlUzUjZoY5aR6cw8PgNzrwNGpz5aHAGx5kdmq0GGoHf4nsuFz8aGyBOkYwzvQflo5LnYcOylDmAsS3O7cqrFNDQJv3gcrr4C5Q8cjQSLwdahb+dRzAEeykwW0d64JiJSLzhm02FBmc+CpzxwG/Zx/Z5Sj9PgOGz+SMnK/SeDlTinMe6DB+ODRF+wOOXpV2hoWF65iXnv+6ihZfpwrFmMFcxUjavHJqkUJoCadefgXDLMKdgV8EGZ94e74Qz/OoAH5gzzz0vj1vkcab9Q8UZFRzjjLr7PndohF14r1FZulB0Bp6jPgle06uvugsvp445NIOzGXljZ3K20YUn2nOc4bEzIpQ1ISuhODgDoRTBHp6TGE1bB7bKBUvowdVUHPGsRx2QwB0B6WTO1J/DQXzCa/zzPr/OgcmpWx2HhbhKYohM24UXZ1OlTCMD7obX6XfPiG/82PzEEppREDO6ikZaRgsUK1AURibpBuIy0OUEEtKf0j5e7EmF0jrUCebw7JdQToytp/kd2rAFd2WrVufwmOljFuEgf1y/Tn3lW3IuONPCA3Dw832YM2gPhJ+ak3s/96I87iwRzYlAp+SBSTtc9z2FV+/YTjrCBwMpMS2qTz+X7vmFMzxcUzyLmccQWnBZvIaFu+9lGuZXen95mT51CRkH04FxHctQOE3NKcXrDEMXbB1vtjtgRRvMiBAPdiwHOxSUejQnIzl+4x7qqe0Xry5YbD10ryxtVvyW/m2BSvecM4glJ8xzXGFr21G2VI7mDG1epO/xCRubTY2QiGLsQXr9JVp5n7jhBnHWElk4TvkKLlOCh2bXx3cB3ug4NGIdKHbW5gUS82x8IkkCAkn6eCfNnUdf/Xdau4nrszZejeCqN8gAZC/bXpLlDZur199kH3o8TYvCZI2NNPPYMtZkOzbfRwvvhDPQJGKMM8/+UR63QESzHwxnpkAgZU+P0RmL6J67aWhAcZJLtGt9ioclOLkyz19nZ0KZ9OpLcuFlbtfhrj9VbkX4m6RZSc1zAQpqD9kZD1lWtJFMJdilcItwxoSThhAi0CunZeVZS9yVd1NxeHursiPG7MzYLtgB8wISQQvUAdUg4K5Jx6w4A1vkK3+n3/yW7voFXf+v4rxLrENOcNpm8/ytpqQOTirejoBhrI8vBrW6LKPLDsXFjKR1xBnWjf9GG9Zyf52sG29sHKU4mS1KZUmXK/jNDeb1364depw4wJAfqjX99hT2Ms6IYMqc0eKeuoB+/nN67WXQhoaHaGiLKm6oVN4cNjeM1vpr5SGrNGCOvll96cnSBRdXCp+oRDNb2lIVjzM87B8q1ht4O+ni7wo8D0xF8jqat9kFYp1dCnRagRT5CjSzm85YTLf+D63ZQIO1KVGlgQr1l3mL/aEqb+sHt5RpU4nWF921/c7aV50XnxWrVqsf/Iyu/BqdskxmT7ADveb+nWJaB/lgNHY+fwsPrlEJviysbjXUWTQ6i5FEOZgpHnv6yA03Wq+84BQ3WqWhSmWkVO0vVtaPFl83i+tUsV8PD9KWfnrxJfEvX68edHRtmiEanPkocCZtNrc7R5ygPv9l8dObxe33yNvu0bfebt5+y8hdNw/edWvpjrvt2+5zbr2revstoz/8TuWYU+3OOXBURmIZB/E6LwxWUOyCjzsSuwdeDSaYFUaeF+vkXEoZBNwlI1ENJlVzhmbk6PBT5Oe/qH5yq7rt/ilxn779XnX7Peq2u8U4JLa33GH99H8r//Gz4vf/q3z992jZ1TTvYuew+aXk0aPRg8qhXsfoVbFe3dbjtOdq7elKa5Ln0u1Qzm3BDpuRI05mkLOj6WpLxowhUMyLvuPNxZfZP/mxuPNOccc91p0PVO+6p3TXbeW7b6ndfat915327XfTrffQD39mnXtxrXC43dwOJ3DSxfcG7GWcUcE0zerU8bnOkadW511gzrtQnLKYTjlfn3quM+9cGzsnLqUTLnFPWWLNX1w+7SzZMcebIpaxOANGDwX6wBk7kqlFkxyw7nD9dwqO/oM5BEi83hhcowCipky1NVOLpKUvTTMyTuKQ0tEnOSedJU85Z2roeWcDat5Z4tQFgJx3FvbVpxaIk86wjju1etRJtYOPo8Rh1DJXGT2OP+f4MsKHCvG6RiJZJ5I2jSTcwp3mCmOeh5KI/imUsYy0FYGU5GhGlow5snCsjWo84wLnlAvoxIvppIv0py5wzzhfnn6ec+p51innq08toRMXi8JxOtpLTQme3LrD9T/y2Ms44zJnEnDE7WCu1JytTk/Jj8fpgARNB5K0X5r+X4H+by8dkHEC2Vo0S/BYpsVpVpbnDAb7KDTH5SmQyVK0y9kzeeiyVijvhLvdUDc1ZTi1DeKZjrzVwjOraFbGDGQGjaR9YEzC+397qAMMPd3QBxpqelhOD8npYXWgoWdE3BkRwna64R4QUvuHqtMMe1YbwcmM5b0+MTiZnAVT+RKiOS6aE9K3c2fJgSXk/CFxVKYVQpiX4awGB6Tp40nUpOPPWLMSzsc76R+y9A8Z+sckzUjRgXGxf7v18S4xLa0PzLvTYUIz1JzZhdjpI4i9zc7Ar4jl7JZspSVTNlJWMKEDcQrFZThuhuOIIpgbzT00E23fVYl0aX8nJ2oJ5c0AL6wH2kAxQxnvsTVPwnDMugGFqHoWp0ETgRTsjB2D2gZ63GC24k/AX4IpmBJQ/yknlLRDSQvg9QVStjdZn3PDRrLEyKhYUsUSOpJQobgKxLUf4Vma4BnGelSsx4p013jS5c7iNF4tPeVGMxTJy0jOiRVkSw8ZvZxDx5/RoZQKdOnmTteXVb60449zBgyjqxZsd3DHQBoBoQ7zT0Rbj9dPvcP1P+rYyzjDz+NlfoDc2/w+JEEG95aKSLxmdFUNXsmEZQgeSCRZjcVlNKmiGSeSKwcydiAP9wycETwJPiH3EGckZ6MtcEjj4+yBdjBVjaQdI00In2I9BFL54AfWz3lbSCDcA6dLRnpltFd4cCI9DtwwTgbQo8I9GjsRzuEiOI1LHPrCCiTtYFqEIMTdOEEGu0WgwP14kwo5CWGuQBVOe6neUjUjXYllRazgRvIua6WEMuIKd4lxqk4nkpAtSdGScKJxikD78NrXnJ4qmq+2oOR7qu/xw4S9jTMgQyDt+BJOc5fyd7GXAuk00poVc9wKx+1IUsbS1FKQsawdS8qWtGhJW9FMOZiuBbKC33/n3TB4BaGZfOV3AX4/E0AVZ+1IDpKk4aoZmWooxas3Q7ZaEOfALUwJf5YjkLeHCOR1sNcNzXaNOW5krgYQXYRnC0T5AUQv3cLfI/0FByYrGAfnEb0gDjHDmVowDffPgU1ozlEzbCzn/pxUyElAIFfDFWCTm1OiKV72x4fDiVLUy3WGkuP6kYTTmrLa0iKW5nzQ0bSOpXVLGjsUTFEzZ1cEV8sGHnzyxfcG7H2+GUW7dTgHBekEYStSmleu9DJcBrIUTOtQAq0u/VndBE8pTr4EBRI6mHSCGSuUs8J5aHTiXiNcavLF3wXAGfLDp0pVo2kXsXg0b0VzNqftS8HsmEa6FgJhOODWYRD7bcEN05ywm+M21EEAj+a9lDS4gwshvhvmHmReqJWHvXgZcMIFToUMhzCY14Gcl9cTjla3isIi7ZQzWTOWg1vFGZsCGdy6ZiRr0TRbHl8Kbq3bnISjaHKykSR3bCBuCWQdIwu/Ufnj1Nzl+pOWkS634ODki+8N2Ns4A4eHVxfjAQGQVBsNaeThkLj+bk4LFMqpMJozYRq9CtELB+VeLtkApBZaOVsJ5/DkiDHIv2fWpOccToG0MFKjUY5AoPtrEWj9JKcjChRKEShjlBP3Apl3An6nHkjCkthAIAEfjyMuBEJGFnphnOE8zgXgd6b8lonhwhljDw3FyMjIzl/AgzPVaN4BZ6BlPEVjGclKNOklOmOGyGCuFs3hCKftRK3OzGt/txXpqYQ56OL4EJUfTlej3mCZHa7/kcc74YxLSirsmxY44x53tozmnGAH+/1cWdwq2EE9jrcfuMSSx0fGP77X4L5mGJDmlPJDF6KxEdDnLX9e+rxUWrA/kVQtlqy0zhGR2RzUBuB/JymY1Px6PlMKpe0Qh7ZuU9LrJ91dIABA7KTAmUi8GuyqhBIVBEvsvUCmu8uRdIXHEUOm2YWbCqCxl04SpXIQpXCgwg/IBPBqu56sEFGTE85ZwbQNBzXIlc90wmk4OZAQgbiE7d2meG8JCHqVjYbXywczEkzZ4UQ5mrAiMIZZhPh2pFBu6y63piEAnKp8VkEGeqxoXyWCqAxWnWkGSbJgQne4+N4B2+A1HgU0iC+j0SKRpMUdIXl1yDx69DEaGgJXmDOa05fwoEAFzjzzBzrqfB3LVSJR2ZKCIMJSm8Eu8E9F0jqC1kIjwQWKuzxaBDUIj+h9ggoAcenJh6gjkISG5oVU+YS4CPHgYhlM8RHvZAVvzTsT7hy2sn6Fba65O9C8jTvbAGXTgYTLDmHCYV/RQ2BK4LnGL4ifo24Rt4x93B7jjzzpuFch/FC79Fz1ekDloJyoHNzLCWE79q1AyUMA6MduLdQTqlfgiPctylkv6tuV8KMOPDvczoqRdXjp0m54sGYkMdLSVW3J6U+cRr98jPr7eYSgdj/GGUtqPCTPsR393It09Hm83Eq0A3pFI6z0pwHEuNwrBfcG7kEAbi4nDsVHuEz11KMNNPBRhxPKwFmw2FvOqmaY+rRozbg8xjfvHnSq+8tHeMSWgHNGH+PFvWu83rclpfOnP1dOXEytc7ifBG5Gs7fsRKCHpy5xWsde11tsZGy9kVCPCDfQwN6CUF74ujyXPltt7jIjKergvhby9dLc0+2nfumURzieIfr/AawrnfLlnKUCAAAAAElFTkSuQmCC;imageBorder=default;" vertex="1" parent="1">
          <mxGeometry x="104.6" y="352.49" width="29.81" height="38" as="geometry" />
        </mxCell>
      </root>
    </mxGraphModel>
  </diagram>
</mxfile>
